<svg width="18" height="31" viewBox="0 0 18 31" fill="none" xmlns="http://www.w3.org/2000/svg">
<g clip-path="url(#clip0_440_34)">
<path d="M9.04829 2.52098C9.10577 2.55929 9.12625 2.60225 9.13968 2.66817C9.14376 2.69106 9.14774 2.71397 9.15162 2.73689C9.26688 3.35352 9.52202 3.94437 9.77584 4.51477C9.78181 4.52826 9.78778 4.54175 9.79393 4.55565C9.93048 4.86407 10.074 5.16899 10.2213 5.47239C10.2375 5.50603 10.2536 5.53976 10.2696 5.57352C10.3534 5.75013 10.4402 5.92516 10.5278 6.09995C10.5479 6.14008 10.5679 6.18023 10.588 6.22039C10.6648 6.37419 10.7419 6.5277 10.8226 6.6795C10.8476 6.72653 10.872 6.77384 10.8963 6.82125C10.9021 6.83253 10.9021 6.83253 10.9079 6.84403C10.9157 6.85915 10.9234 6.87427 10.9312 6.88939C10.9952 7.0145 11.0602 7.13891 11.1282 7.26197C11.1728 7.34314 11.2156 7.42524 11.258 7.5076C11.3114 7.61126 11.3659 7.7142 11.4221 7.81639C11.4648 7.89417 11.5067 7.97237 11.5485 8.0507C11.6113 8.16856 11.6756 8.28543 11.7418 8.40144C11.7851 8.47768 11.8265 8.55476 11.867 8.63254C11.9115 8.71777 11.9581 8.8017 12.0051 8.88557C12.0241 8.9196 12.043 8.95367 12.0619 8.98776C12.136 9.12152 12.2105 9.25506 12.2859 9.38813C12.3309 9.46756 12.3756 9.54714 12.4202 9.62681C12.4268 9.63865 12.4335 9.65048 12.4403 9.66268C12.4738 9.72258 12.5073 9.78252 12.5407 9.84249C12.6125 9.97134 12.6854 10.0994 12.7601 10.2266C12.8077 10.3078 12.854 10.3897 12.8998 10.4719C12.9646 10.5884 13.0312 10.7037 13.0986 10.8186C13.1407 10.8905 13.1824 10.9627 13.224 11.0349C13.2311 11.0472 13.2382 11.0595 13.2455 11.0722C13.2813 11.1342 13.317 11.1962 13.3526 11.2583C13.4326 11.3973 13.5135 11.5358 13.5955 11.6736C13.6473 11.7607 13.6981 11.8483 13.7485 11.9363C13.8134 12.0495 13.8805 12.1613 13.9485 12.2727C13.9975 12.3528 14.0456 12.4333 14.0908 12.5156C14.143 12.6098 14.2 12.7011 14.2562 12.7929C14.4017 13.0304 14.4017 13.0304 14.3933 13.1113C14.3714 13.195 14.3305 13.2367 14.2665 13.293C14.2489 13.309 14.2313 13.325 14.2137 13.341C14.2053 13.3486 14.1969 13.3562 14.1882 13.364C14.1605 13.3894 14.1339 13.4158 14.1076 13.4427C14.0793 13.4714 14.0506 13.4985 14.02 13.5246C13.9769 13.5615 13.9372 13.6012 13.8974 13.6415C13.8517 13.6877 13.8055 13.732 13.7559 13.7741C13.7239 13.8027 13.6939 13.8332 13.6637 13.8638C13.6269 13.901 13.5903 13.9375 13.5504 13.9714C13.5079 14.0075 13.4691 14.0466 13.4299 14.0861C13.3842 14.1323 13.3381 14.1766 13.2884 14.2187C13.2564 14.2474 13.2264 14.2779 13.1962 14.3084C13.1595 14.3457 13.1228 14.3822 13.0829 14.416C13.0405 14.4521 13.0016 14.4912 12.9625 14.5308C12.9168 14.577 12.8706 14.6213 12.821 14.6634C12.789 14.692 12.759 14.7225 12.7288 14.7531C12.692 14.7903 12.6554 14.8268 12.6155 14.8607C12.573 14.8968 12.5342 14.9359 12.495 14.9754C12.4493 15.0216 12.4032 15.0659 12.3535 15.108C12.3215 15.1367 12.2915 15.1672 12.2613 15.1977C12.2246 15.235 12.1879 15.2715 12.148 15.3053C12.1056 15.3414 12.0667 15.3805 12.0276 15.4201C11.9819 15.4663 11.9357 15.5106 11.8861 15.5527C11.8541 15.5813 11.8241 15.6118 11.7939 15.6424C11.7571 15.6796 11.7205 15.7161 11.6806 15.75C11.6381 15.786 11.5993 15.8251 11.5601 15.8647C11.5144 15.9109 11.4683 15.9552 11.4186 15.9973C11.3866 16.026 11.3566 16.0565 11.3264 16.087C11.2896 16.1243 11.253 16.1608 11.2131 16.1946C11.1707 16.2307 11.1318 16.2698 11.0927 16.3094C11.047 16.3556 11.0008 16.3999 10.9512 16.4419C10.9128 16.4763 10.8771 16.5133 10.841 16.5499C10.8032 16.5879 10.7644 16.6235 10.7236 16.6582C10.6914 16.687 10.6613 16.7176 10.6309 16.7483C10.5942 16.7855 10.5576 16.8221 10.5176 16.8559C10.4752 16.892 10.4363 16.9311 10.3972 16.9706C10.3515 17.0169 10.3053 17.0612 10.2557 17.1032C10.2237 17.1319 10.1937 17.1624 10.1635 17.193C10.1267 17.2302 10.0901 17.2667 10.0502 17.3006C10.0077 17.3366 9.96888 17.3757 9.92975 17.4153C9.88342 17.4621 9.8369 17.5077 9.78653 17.5502C9.77023 17.5642 9.75437 17.5788 9.73878 17.5936C9.50478 17.8144 9.21844 17.8954 8.90311 17.8916C8.61784 17.8831 8.36636 17.7488 8.1645 17.5533C8.14321 17.5328 8.12163 17.5127 8.09999 17.4926C8.02612 17.4239 7.95313 17.3548 7.88234 17.2829C7.86147 17.2624 7.83996 17.2433 7.81767 17.2243C7.77461 17.1874 7.73494 17.1477 7.69511 17.1075C7.6494 17.0612 7.60323 17.0169 7.55362 16.9749C7.51525 16.9405 7.47955 16.9035 7.44336 16.8669C7.41254 16.8358 7.38149 16.8058 7.34808 16.7775C7.29859 16.7355 7.25367 16.6891 7.20805 16.643C7.16883 16.6035 7.12863 16.5662 7.08617 16.5302C7.04779 16.4959 7.0121 16.4589 6.97591 16.4222C6.94509 16.3912 6.91404 16.3612 6.88063 16.3329C6.83114 16.2908 6.78622 16.2445 6.74059 16.1983C6.70137 16.1588 6.66118 16.1216 6.61872 16.0856C6.58035 16.0512 6.54466 16.0142 6.50849 15.9776C6.47742 15.9463 6.4461 15.9161 6.41247 15.8875C6.37233 15.8534 6.33545 15.8167 6.29846 15.7792C6.2617 15.742 6.22509 15.7055 6.18516 15.6716C6.13566 15.6296 6.09074 15.5832 6.04512 15.537C6.0059 15.4976 5.96571 15.4603 5.92324 15.4243C5.88487 15.3899 5.84917 15.3529 5.81298 15.3163C5.78216 15.2853 5.75111 15.2553 5.7177 15.227C5.66821 15.1849 5.62329 15.1385 5.57767 15.0924C5.53845 15.0529 5.49825 15.0157 5.45579 14.9796C5.41742 14.9453 5.38173 14.9083 5.34556 14.8717C5.31449 14.8404 5.28317 14.8102 5.24954 14.7816C5.2094 14.7475 5.17252 14.7107 5.13553 14.6733C5.09877 14.6361 5.06216 14.5995 5.02223 14.5657C4.97273 14.5236 4.92782 14.4773 4.88219 14.4311C4.84297 14.3916 4.80278 14.3544 4.76031 14.3184C4.72194 14.284 4.68624 14.247 4.65006 14.2104C4.61923 14.1793 4.58818 14.1494 4.55478 14.121C4.50528 14.079 4.46037 14.0326 4.41474 13.9865C4.37552 13.947 4.33533 13.9097 4.29286 13.8737C4.2545 13.8394 4.21881 13.8024 4.18263 13.7658C4.15156 13.7345 4.12024 13.7043 4.08661 13.6757C4.04647 13.6416 4.00959 13.6048 3.9726 13.5674C3.93584 13.5302 3.89923 13.4936 3.8593 13.4598C3.80962 13.4176 3.76436 13.3711 3.71884 13.3246C3.68939 13.2947 3.65977 13.2661 3.62731 13.2395C3.57225 13.194 3.55856 13.152 3.54871 13.0837C3.55436 13.0027 3.60024 12.9334 3.64196 12.8662C3.65422 12.8461 3.66647 12.826 3.67871 12.8059C3.6855 12.7948 3.69229 12.7836 3.69929 12.7722C3.74317 12.6998 3.78621 12.6269 3.82937 12.5541C3.83886 12.5381 3.84834 12.5221 3.85783 12.5061C3.8847 12.4608 3.91155 12.4155 3.9384 12.3702C3.94535 12.3585 3.95231 12.3468 3.95948 12.3347C4.05444 12.1744 4.14868 12.0137 4.24282 11.853C4.2718 11.8035 4.30082 11.754 4.32987 11.7046C4.41487 11.5599 4.49942 11.4149 4.58313 11.2695C4.6299 11.1882 4.67703 11.1072 4.72437 11.0263C4.80528 10.8879 4.88477 10.7487 4.96414 10.6095C4.99843 10.5493 5.03279 10.4892 5.06715 10.4291C5.07853 10.4092 5.08991 10.3893 5.10129 10.3693C5.13556 10.3094 5.16985 10.2494 5.20423 10.1895C5.29096 10.0383 5.37681 9.88667 5.46122 9.73418C5.50616 9.65302 5.55151 9.57211 5.59728 9.49142C5.67348 9.35701 5.74846 9.22195 5.82336 9.08682C5.84428 9.04909 5.86523 9.01137 5.88619 8.97365C5.89502 8.95777 5.90384 8.94188 5.91266 8.92599C5.94031 8.87619 5.96803 8.82644 5.99579 8.7767C6.08149 8.62302 6.16589 8.46872 6.24907 8.31366C6.28423 8.24813 6.31977 8.18281 6.35546 8.11757C6.42506 7.99023 6.49391 7.86249 6.56258 7.73464C6.58384 7.69507 6.60513 7.65551 6.62642 7.61595C6.70836 7.46359 6.78914 7.31067 6.8687 7.15705C6.89904 7.09848 6.92966 7.04006 6.96044 6.98172C7.02519 6.85887 7.08956 6.73584 7.15355 6.6126C7.15871 6.60267 7.15871 6.60267 7.16398 6.59253C7.28392 6.36177 7.40127 6.12974 7.51768 5.89717C7.52739 5.87779 7.52739 5.87779 7.5373 5.85801C7.61924 5.69442 7.69971 5.53022 7.77813 5.36491C7.79105 5.3377 7.80402 5.31051 7.81702 5.28333C7.93451 5.03754 8.04766 4.7901 8.15694 4.54057C8.16826 4.51478 8.17963 4.48902 8.19101 4.46326C8.43994 3.90003 8.69347 3.31304 8.79794 2.703C8.80956 2.63867 8.82129 2.5928 8.86374 2.54235C8.92521 2.50137 8.97881 2.49645 9.04829 2.52098ZM8.96635 3.14662C8.96281 3.1573 8.95928 3.16797 8.95564 3.17897C8.77339 3.72768 8.55468 4.26174 8.31648 4.7884C8.30985 4.8031 8.30322 4.81779 8.29659 4.83249C8.15621 5.14356 8.01259 5.45295 7.86363 5.76C7.84087 5.80694 7.81826 5.85394 7.79594 5.90109C7.70349 6.09638 7.60641 6.28932 7.50947 6.48241C7.45459 6.59174 7.39995 6.7012 7.34539 6.81069C7.32209 6.85743 7.29877 6.90416 7.27545 6.95089C7.26357 6.9747 7.2517 6.99852 7.23984 7.02234C7.17207 7.15843 7.10337 7.2939 7.03217 7.42824C7.00573 7.47819 6.97984 7.5284 6.95412 7.57872C6.95002 7.58674 6.94592 7.59475 6.9417 7.60301C6.93342 7.61921 6.92514 7.63541 6.91686 7.65162C6.85073 7.78096 6.78384 7.90968 6.71354 8.03681C6.6667 8.12183 6.62215 8.20796 6.57779 8.29428C6.52315 8.40057 6.46751 8.50616 6.40982 8.61083C6.36115 8.69936 6.31403 8.78867 6.26698 8.87806C6.19787 9.00932 6.1277 9.13966 6.05389 9.26836C6.01209 9.34153 5.97281 9.41574 5.93433 9.4907C5.88122 9.59402 5.82417 9.69445 5.76508 9.79445C5.71424 9.88067 5.66583 9.96798 5.61837 10.0561C5.57505 10.1363 5.5298 10.2152 5.48299 10.2933C5.43476 10.375 5.405 10.45 5.42056 10.546C5.46078 10.6523 5.53872 10.7099 5.63888 10.7566C5.91583 10.8697 6.1866 10.7929 6.46662 10.7292C6.47869 10.7264 6.49076 10.7237 6.5032 10.7209C6.96326 10.6164 7.41619 10.492 7.8684 10.3581C8.35627 10.2136 8.35627 10.2136 8.57229 10.1634C8.58121 10.1613 8.59013 10.1592 8.59931 10.157C10.162 9.79165 10.162 9.79165 10.6819 10.0715C10.7601 10.1217 10.8025 10.1943 10.8248 10.2838C10.843 10.4323 10.7946 10.5723 10.7107 10.6942C10.6544 10.7628 10.5913 10.8256 10.5283 10.8881C10.5764 10.8816 10.6237 10.8737 10.6713 10.8641C11.0354 10.7929 11.437 10.8326 11.7582 11.0292C12.0219 11.2085 12.1844 11.4509 12.2458 11.7642C12.3061 12.1247 12.2436 12.5123 12.0324 12.8145C12.0108 12.8421 11.9882 12.8684 11.9649 12.8947C11.9584 12.9029 11.952 12.9111 11.9453 12.9195C11.8229 13.0701 11.5868 13.2434 11.3916 13.2752C11.3414 13.2767 11.3216 13.2762 11.2808 13.2439C11.2395 13.1897 11.2395 13.1438 11.2466 13.0771C11.2699 13.0305 11.303 13.0134 11.3471 12.9887C11.4552 12.9263 11.5139 12.8186 11.5499 12.7012C11.5649 12.6242 11.566 12.5515 11.5266 12.4821C11.3969 12.2933 11.1944 12.1766 10.9794 12.1109C10.9684 12.1075 10.9684 12.1075 10.9572 12.104C10.8271 12.0667 10.693 12.0579 10.5582 12.0581C10.547 12.0581 10.547 12.0581 10.5355 12.0582C9.54952 12.0624 8.44564 12.4852 7.37017 13.2709C7.36427 13.2758 7.35837 13.2808 7.35229 13.2858C7.18842 13.4227 7.03534 13.5706 6.8842 13.7213C6.87366 13.7318 6.86312 13.7422 6.85226 13.7531C6.80073 13.8047 6.75069 13.857 6.70317 13.9123C6.67961 13.9398 6.65505 13.9662 6.63052 13.9928C6.57441 14.0544 6.52175 14.1182 6.46947 14.183C6.45797 14.1971 6.44645 14.2111 6.43491 14.2251C6.27391 14.421 6.12532 14.6256 5.9835 14.8358C5.97878 14.8427 5.97406 14.8496 5.96919 14.8568C5.94484 14.8932 5.9253 14.9283 5.91081 14.9697C5.91866 14.9763 5.91866 14.9763 5.92666 14.983C6.00537 15.0504 6.07709 15.1243 6.14944 15.1984C6.16403 15.2132 6.16403 15.2132 6.17892 15.2282C6.18765 15.2372 6.19639 15.2461 6.20539 15.2553C6.22819 15.2759 6.24756 15.2884 6.27565 15.3004C6.28199 15.2872 6.28199 15.2872 6.28846 15.2738C6.54744 14.7402 6.87035 14.2476 7.27454 13.8126C7.29081 13.7949 7.30689 13.7771 7.32292 13.7592C7.37474 13.7016 7.4268 13.6465 7.48628 13.5966C7.50698 13.5788 7.52579 13.56 7.54476 13.5403C7.58639 13.498 7.63181 13.4613 7.67805 13.4241C7.70699 13.4006 7.73528 13.3765 7.76342 13.352C8.46694 12.7433 9.38716 12.4051 10.3017 12.2968C10.3106 12.2957 10.3195 12.2946 10.3286 12.2935C10.5072 12.2718 10.5072 12.2718 10.5967 12.3018C10.6301 12.3289 10.6313 12.3492 10.6409 12.3916C10.6448 12.44 10.6387 12.4677 10.6081 12.507C10.5518 12.5462 10.485 12.5677 10.4214 12.5924C9.93281 12.783 9.47199 13.0582 9.08036 13.4077C9.07075 13.4162 9.06114 13.4247 9.05123 13.4334C9.02271 13.4588 8.99449 13.4845 8.96635 13.5104C8.95635 13.5195 8.95635 13.5195 8.94615 13.5288C8.83579 13.6287 8.83579 13.6287 8.73512 13.738C8.71475 13.7621 8.69337 13.7851 8.6718 13.8081C8.60342 13.8812 8.54131 13.958 8.48032 14.0373C8.45466 14.0706 8.42867 14.1037 8.4027 14.1367C8.39751 14.1433 8.39233 14.15 8.38699 14.1568C8.36088 14.1901 8.3345 14.2232 8.30739 14.2557C7.94316 14.695 7.67928 15.221 7.6096 15.7906C7.60853 15.799 7.60745 15.8073 7.60634 15.8159C7.57379 16.0971 7.56107 16.4732 7.73074 16.717C7.79622 16.7947 7.87103 16.8668 7.94816 16.9328C8.01528 16.991 8.07671 17.0551 8.13903 17.1184C8.19767 17.1778 8.25663 17.2359 8.32012 17.2901C8.34582 17.3127 8.36878 17.3375 8.39201 17.3626C8.50049 17.4715 8.62492 17.5381 8.77253 17.5806C8.78706 17.5848 8.78706 17.5848 8.80188 17.5891C8.99293 17.6352 9.19043 17.5945 9.36285 17.5072C9.39 17.4881 9.39942 17.4745 9.411 17.4438C9.40284 17.4385 9.39468 17.4333 9.38628 17.4278C9.25014 17.3387 9.12374 17.2418 9.00607 17.1293C8.9948 17.1185 8.98348 17.1079 8.9721 17.0972C8.6626 16.8077 8.48366 16.4133 8.43049 15.9958C8.42899 15.9842 8.42749 15.9726 8.42595 15.9606C8.34273 15.1577 8.7097 14.2918 9.20003 13.6706C9.50028 13.3039 9.50028 13.3039 9.66182 13.2595C9.72251 13.2606 9.75519 13.2744 9.79864 13.3165C9.81978 13.3588 9.8198 13.3969 9.81004 13.4419C9.7912 13.476 9.77076 13.5076 9.74884 13.5397C9.65771 13.6733 9.55689 13.879 9.58202 14.0462C9.58381 14.0587 9.5856 14.0711 9.58745 14.0839C9.63924 14.3838 9.79911 14.6041 10.0039 14.8215C10.0115 14.8297 10.0191 14.838 10.0269 14.8464C10.3099 15.1425 10.7133 15.2837 11.1167 15.293C11.4025 15.2949 11.7342 15.252 11.9477 15.043C11.9742 15.0173 12.0014 14.9927 12.0291 14.9683C12.0923 14.9117 12.1519 14.852 12.2114 14.7916C12.3241 14.6772 12.3241 14.6772 12.3752 14.6335C12.4336 14.5835 12.4867 14.5284 12.5406 14.4738C12.6016 14.412 12.6624 14.3514 12.7283 14.2949C12.7762 14.2523 12.8206 14.2059 12.8656 14.1602C12.9737 14.0504 12.9737 14.0504 13.0248 14.0067C13.0832 13.9566 13.1365 13.9015 13.1905 13.8467C13.2513 13.785 13.3121 13.7246 13.3779 13.6682C13.4278 13.6236 13.4741 13.5751 13.5211 13.5275C13.6354 13.4116 13.6354 13.4116 13.6862 13.3681C13.7518 13.312 13.8111 13.2495 13.8716 13.1881C13.8874 13.1722 13.9032 13.1562 13.919 13.1403C13.9283 13.1309 13.9375 13.1215 13.9471 13.1118C13.9715 13.0885 13.9715 13.0885 14.0057 13.0657C13.999 13.0201 13.9847 12.9876 13.9614 12.9479C13.9545 12.9361 13.9477 12.9244 13.9406 12.9122C13.9332 12.8996 13.9257 12.887 13.9181 12.874C13.9103 12.8607 13.9025 12.8474 13.8947 12.834C13.8748 12.7999 13.8548 12.7658 13.8347 12.7318C13.8044 12.6802 13.7743 12.6285 13.7442 12.5769C13.7345 12.5602 13.7345 12.5602 13.7245 12.5433C13.6542 12.4228 13.5852 12.3017 13.5161 12.1806C13.4891 12.1331 13.4619 12.0856 13.4347 12.0382C13.3546 11.8982 13.2749 11.7579 13.1963 11.6171C13.1549 11.5429 13.113 11.4691 13.0708 11.3954C13.0142 11.2967 12.9585 11.1976 12.903 11.0982C12.8587 11.019 12.8141 10.9399 12.7694 10.861C12.6939 10.7277 12.6195 10.5937 12.5452 10.4597C12.5239 10.4212 12.5025 10.3828 12.4811 10.3443C12.3422 10.0945 12.2033 9.84475 12.0684 9.59276C12.0253 9.51247 11.9809 9.43302 11.9357 9.35389C11.8774 9.25185 11.8225 9.14836 11.7687 9.04392C11.7296 8.96807 11.6896 8.89281 11.6485 8.81803C11.5836 8.7 11.5204 8.58113 11.4574 8.46213C11.4116 8.37584 11.3657 8.2897 11.3193 8.20375C11.233 8.04349 11.1494 7.88191 11.0664 7.7199C11.0622 7.71167 11.058 7.70344 11.0536 7.69496C11.0474 7.68286 11.0474 7.68286 11.0411 7.67051C11.0112 7.61219 10.9808 7.55411 10.9502 7.4962C10.7784 7.17186 10.6144 6.84355 10.4504 6.51526C10.4207 6.45588 10.3911 6.39653 10.3613 6.33719C10.3379 6.29038 10.3145 6.24356 10.2911 6.19673C10.2802 6.17486 10.2693 6.15299 10.2583 6.13113C10.1793 5.97323 10.1024 5.81438 10.0267 5.6549C10.0178 5.63632 10.009 5.61774 10.0001 5.59916C9.88876 5.36528 9.77948 5.13051 9.67347 4.89415C9.66133 4.86712 9.64916 4.8401 9.63699 4.81308C9.43962 4.37458 9.25023 3.93148 9.09176 3.47726C9.08916 3.46979 9.08655 3.46233 9.08386 3.45464C9.04808 3.35211 9.01271 3.24944 8.97775 3.14662C8.97399 3.14662 8.97022 3.14662 8.96635 3.14662ZM9.468 10.2724C9.45084 10.2749 9.43367 10.2773 9.4165 10.2798C8.90956 10.3534 8.42071 10.4812 7.9307 10.6286C7.37642 10.795 6.81735 10.937 6.25143 11.0577C6.23921 11.0603 6.22699 11.0629 6.21441 11.0656C5.70102 11.1752 5.70102 11.1752 5.4455 11.176C5.42533 11.176 5.42533 11.176 5.40474 11.1761C5.3101 11.1755 5.21919 11.1675 5.12618 11.1501C5.0617 11.1379 5.0617 11.1379 4.99871 11.1503C4.97636 11.1777 4.97636 11.1777 4.95854 11.2131C4.95141 11.2262 4.94428 11.2392 4.93693 11.2526C4.92949 11.2667 4.92205 11.2808 4.91463 11.295C4.90696 11.3092 4.89928 11.3235 4.89159 11.3378C4.87665 11.3656 4.86184 11.3935 4.84714 11.4214C4.83188 11.4502 4.81633 11.4788 4.80039 11.5073C4.67547 11.7383 4.64843 12.0383 4.71368 12.2904C4.75969 12.4347 4.8453 12.5728 4.98085 12.6478C5.1878 12.7426 5.44045 12.6871 5.64614 12.6138C6.02698 12.4715 6.3517 12.2367 6.6716 11.991C6.72548 11.9497 6.77983 11.9091 6.83431 11.8686C6.84221 11.8627 6.85011 11.8568 6.85825 11.8507C7.03101 11.7217 7.20613 11.6001 7.39298 11.4923C7.39955 11.4885 7.40612 11.4846 7.41288 11.4807C7.54421 11.4044 7.68383 11.3506 7.82622 11.2985C7.83662 11.2947 7.84701 11.2909 7.85772 11.287C8.08185 11.2058 8.30425 11.1592 8.54308 11.1603C8.56113 11.1603 8.56113 11.1603 8.57955 11.1604C8.8279 11.1622 8.8279 11.1622 8.88654 11.2073C8.91741 11.2581 8.92695 11.2994 8.91665 11.3571C8.90401 11.3938 8.88286 11.4124 8.85234 11.4353C8.80574 11.449 8.76428 11.4459 8.71623 11.4417C8.45615 11.422 8.23366 11.4614 7.98584 11.5379C7.97574 11.541 7.96563 11.5441 7.95522 11.5472C7.7019 11.6255 7.47338 11.7524 7.25616 11.9028C7.2491 11.9076 7.24203 11.9125 7.23476 11.9174C7.13716 11.9846 7.04346 12.0569 6.94943 12.1289C6.85599 12.2003 6.76159 12.2704 6.66656 12.3397C6.64088 12.3585 6.61532 12.3775 6.58977 12.3965C6.23498 12.6588 5.85516 12.8641 5.42056 12.9517C5.41241 12.9534 5.40425 12.955 5.39585 12.9568C5.16298 13.0021 4.88744 12.9928 4.65668 12.9403C4.64348 12.9374 4.64348 12.9374 4.63001 12.9343C4.44894 12.8919 4.28563 12.8074 4.12082 12.7237C4.0777 12.7791 4.044 12.8397 4.00894 12.9004C4.00184 12.9123 3.99473 12.9242 3.98741 12.9365C3.9808 12.948 3.9742 12.9595 3.96739 12.9713C3.95822 12.987 3.95822 12.987 3.94887 13.003C3.9353 13.0308 3.9353 13.0308 3.94664 13.0565C4.12361 13.3074 4.47488 13.4223 4.76266 13.4737C4.86751 13.4913 4.97215 13.5068 5.07852 13.5104C5.08825 13.5108 5.09798 13.5113 5.10801 13.5117C5.45347 13.5206 5.76194 13.4055 6.03623 13.2025C6.04708 13.1945 6.04708 13.1945 6.05816 13.1863C6.1009 13.1545 6.14281 13.1218 6.18444 13.0885C6.20014 13.0761 6.20014 13.0761 6.21615 13.0635C6.30048 12.9959 6.37926 12.9229 6.45807 12.8491C6.61073 12.7063 6.76697 12.5711 6.93461 12.446C6.95128 12.4335 6.96791 12.421 6.98449 12.4085C7.29295 12.1751 7.67017 11.9487 8.06707 11.9448C8.07835 11.9445 8.08962 11.9442 8.10123 11.9438C8.18375 11.9431 8.18375 11.9431 8.2209 11.97C8.25672 12.0245 8.25647 12.0782 8.24807 12.1422C8.21927 12.1811 8.20247 12.1954 8.15686 12.2106C8.13027 12.2118 8.10366 12.2127 8.07705 12.2135C7.7086 12.2324 7.38179 12.4506 7.09654 12.6667C7.08941 12.6721 7.08227 12.6774 7.07492 12.683C6.90529 12.8119 6.74757 12.9549 6.59208 13.1003C6.51555 13.1717 6.43784 13.2404 6.35546 13.3051C6.34835 13.3107 6.34124 13.3163 6.33391 13.3221C5.91042 13.6543 5.44324 13.895 4.9075 13.9778C4.92454 14.0191 4.94784 14.0415 4.98152 14.0704C5.04364 14.1249 5.10178 14.1826 5.15976 14.2415C5.23614 14.3194 5.23614 14.3194 5.31679 14.3928C5.37939 14.4465 5.43665 14.5057 5.49467 14.5643C5.50633 14.576 5.518 14.5877 5.52967 14.5994C5.55794 14.6278 5.58617 14.6562 5.61438 14.6847C5.64045 14.6525 5.66592 14.6202 5.68956 14.5861C5.69754 14.5747 5.69754 14.5747 5.70568 14.563C5.7113 14.555 5.71691 14.5469 5.72269 14.5386C5.85353 14.3521 5.99102 14.17 6.13914 13.9969C6.17093 13.9597 6.20176 13.922 6.23219 13.8837C6.35944 13.7284 6.50454 13.5882 6.64619 13.4462C6.65367 13.4387 6.66115 13.4312 6.66885 13.4235C6.74476 13.3473 6.82032 13.2717 6.90272 13.2025C6.91508 13.1917 6.92742 13.1809 6.93973 13.17C7.2146 12.9301 7.51902 12.7295 7.83762 12.5527C7.84757 12.5471 7.85752 12.5416 7.86777 12.5359C8.50407 12.1853 9.24159 11.9511 9.95826 11.8344C9.96976 11.8325 9.96976 11.8325 9.9815 11.8306C10.1747 11.7991 10.3661 11.7846 10.5618 11.7838C10.5707 11.7837 10.5795 11.7836 10.5886 11.7836C10.7574 11.7827 10.9244 11.8027 11.0863 11.8522C11.1003 11.8565 11.1003 11.8565 11.1146 11.8608C11.3871 11.949 11.642 12.1295 11.7743 12.3873C11.8029 12.4512 11.8115 12.5106 11.8147 12.5804C11.8155 12.611 11.8155 12.611 11.8281 12.6439C11.9619 12.4688 12.0056 12.2562 12.0042 12.0398C12.0041 12.0168 12.0044 11.9938 12.0048 11.9707C12.0059 11.7658 11.9416 11.5788 11.8053 11.4239C11.7949 11.4122 11.7949 11.4122 11.7843 11.4001C11.6238 11.2292 11.3655 11.1281 11.1333 11.1141C10.7786 11.107 10.4888 11.1673 10.1963 11.3748C10.128 11.4232 10.0632 11.4603 9.98106 11.4809C9.9729 11.4831 9.96475 11.4852 9.95634 11.4874C9.82894 11.5068 9.67924 11.5075 9.55921 11.4581C9.54649 11.453 9.54649 11.453 9.53352 11.4477C9.48309 11.4249 9.44788 11.3975 9.411 11.3555C9.40324 11.3473 9.39548 11.3391 9.38748 11.3306C9.31917 11.2314 9.30579 11.1325 9.31979 11.0135C9.34701 10.906 9.40171 10.8267 9.49602 10.768C9.58472 10.721 9.67118 10.7012 9.77085 10.7014C9.7797 10.7014 9.78856 10.7014 9.79768 10.7014C9.90467 10.7037 10.0077 10.7265 10.1022 10.7783C10.138 10.8008 10.138 10.8008 10.1675 10.7892C10.3232 10.7112 10.5008 10.5772 10.5671 10.4104C10.5772 10.3747 10.5762 10.3525 10.5625 10.318C10.449 10.2094 10.2557 10.2192 10.1086 10.2211C10.0988 10.2212 10.0889 10.2212 10.0788 10.2213C9.87293 10.2228 9.6715 10.2426 9.468 10.2724ZM9.59912 11.0341C9.58012 11.0745 9.57362 11.0951 9.58202 11.1389C9.62489 11.2004 9.68246 11.2167 9.75303 11.2301C9.85352 11.2434 9.96383 11.2201 10.0475 11.1622C10.0749 11.1402 10.0749 11.1402 10.0837 11.1047C10.0395 11.0298 9.96427 11.0059 9.88486 10.9821C9.7827 10.9564 9.67431 10.9496 9.59912 11.0341ZM8.11125 13.4305C8.10411 13.436 8.09696 13.4414 8.08959 13.447C7.83149 13.6437 7.57919 13.8658 7.37017 14.1146C7.35996 14.1263 7.34973 14.1379 7.33949 14.1495C7.03486 14.4968 6.76334 14.9401 6.7431 15.4144C6.74265 15.4224 6.74219 15.4304 6.74172 15.4387C6.73706 15.5916 6.76976 15.7733 6.86954 15.8935C6.90826 15.9335 6.94951 15.9706 6.99099 16.0076C7.05143 16.062 7.10797 16.1204 7.16495 16.1782C7.19135 16.1386 7.19969 16.101 7.21011 16.0554C7.21451 16.0368 7.21892 16.0183 7.22334 15.9997C7.22566 15.9899 7.22798 15.9801 7.23037 15.97C7.38741 15.3111 7.64733 14.6566 8.07263 14.1232C8.09844 14.0906 8.12384 14.0578 8.14931 14.0249C8.17569 13.9909 8.20214 13.957 8.22859 13.923C8.24195 13.9059 8.25527 13.8887 8.26857 13.8715C8.39921 13.7026 8.54214 13.5461 8.69244 13.3946C8.70383 13.3831 8.71521 13.3716 8.72656 13.3601C8.80251 13.2832 8.88175 13.2128 8.96635 13.1455C8.97806 13.1357 8.98973 13.1258 9.00131 13.1158C9.13456 13.0015 9.27874 12.9006 9.42602 12.8053C9.4583 12.7842 9.48791 12.764 9.51361 12.7351C9.0651 12.7351 8.44494 13.1769 8.11125 13.4305ZM9.28558 14.012C9.08301 14.2986 8.92296 14.6237 8.81813 14.9583C8.81509 14.968 8.81206 14.9776 8.80892 14.9876C8.70767 15.3137 8.61541 15.7208 8.73832 16.0528C8.74245 16.0647 8.74658 16.0766 8.75084 16.0888C8.85448 16.3615 9.06816 16.5829 9.33174 16.7046C9.39815 16.733 9.46655 16.7531 9.53641 16.7711C9.5472 16.7739 9.55799 16.7767 9.5691 16.7796C9.7715 16.8222 10.0019 16.8129 10.182 16.707C10.2065 16.6907 10.2307 16.6741 10.2547 16.6571C10.266 16.6494 10.2772 16.6418 10.2888 16.6339C10.3957 16.5568 10.4855 16.4628 10.5774 16.3687C10.6164 16.329 10.6566 16.292 10.6989 16.2559C10.7448 16.2152 10.7874 16.1712 10.8305 16.1277C10.8445 16.1135 10.8445 16.1135 10.8589 16.0991C10.8817 16.0761 10.9046 16.0531 10.9274 16.03C10.9112 15.992 10.9112 15.992 10.8759 15.9707C10.864 15.9668 10.852 15.9628 10.8397 15.9588C10.5354 15.8482 10.2544 15.6356 10.0242 15.4113C10.0044 15.3921 9.98455 15.3731 9.96463 15.3541C9.87773 15.2703 9.80172 15.181 9.73023 15.0837C9.72133 15.0716 9.71242 15.0596 9.70324 15.0471C9.48235 14.7376 9.34261 14.3895 9.29698 14.012C9.29322 14.012 9.28946 14.012 9.28558 14.012Z" fill="black"/>
<path d="M9.03471 -6.78224e-05C9.09086 0.0294954 9.11628 0.0665901 9.13732 0.125346C9.14173 0.146357 9.14552 0.167505 9.14881 0.188721C9.15083 0.201168 9.15285 0.213616 9.15494 0.22644C9.15712 0.239874 9.1593 0.253308 9.16155 0.267149C9.33181 1.2558 9.79867 2.21107 10.3801 3.47731C10.384 3.48577 10.3879 3.49423 10.392 3.50294C10.4877 3.70844 10.5852 3.91307 10.6846 4.1168C10.6883 4.12427 10.6919 4.13175 10.6957 4.13946C10.7034 4.15517 10.711 4.17088 10.7187 4.18658C10.7403 4.23084 10.7617 4.2752 10.7827 4.31969C10.8969 4.5602 11.0167 4.79794 11.1359 5.03601C11.1676 5.09942 11.1993 5.16285 11.231 5.22629C11.2558 5.27591 11.2806 5.32552 11.3054 5.37513C11.3171 5.3985 11.3288 5.42187 11.3404 5.44524C11.4101 5.58465 11.4812 5.72316 11.5541 5.86087C11.5783 5.90662 11.6018 5.95267 11.6253 5.99877C11.6302 6.00833 11.6351 6.01788 11.6401 6.02773C11.6603 6.06723 11.6804 6.10675 11.7006 6.14627C11.7642 6.27095 11.8285 6.39522 11.8939 6.51899C11.9198 6.56806 11.9454 6.61729 11.9709 6.66655C12.0203 6.76179 12.0706 6.85644 12.1223 6.95042C12.176 7.04793 12.2275 7.14645 12.2784 7.24543C12.3333 7.35223 12.3892 7.45834 12.4471 7.56355C12.4982 7.65654 12.5479 7.75023 12.5976 7.84399C12.6582 7.95831 12.7191 8.07236 12.7813 8.18579C12.818 8.2526 12.8541 8.31964 12.8901 8.3868C12.9541 8.50626 13.0194 8.62477 13.0866 8.74251C13.1293 8.81774 13.17 8.89381 13.2099 8.9706C13.2524 9.05208 13.2977 9.13185 13.3433 9.2117C13.3905 9.29481 13.4361 9.37868 13.4812 9.46297C13.5367 9.56679 13.5936 9.66972 13.6518 9.77206C13.7019 9.86007 13.7509 9.94861 13.7997 10.0373C13.8764 10.1766 13.9538 10.3155 14.0317 10.4542C14.0649 10.5133 14.098 10.5725 14.1311 10.6316C14.1376 10.6433 14.1442 10.6551 14.151 10.6671C14.1845 10.7271 14.2181 10.787 14.2516 10.847C14.3299 10.9871 14.4088 11.1267 14.4886 11.266C14.5205 11.3216 14.5523 11.3772 14.5841 11.4329C14.6035 11.4669 14.6229 11.501 14.6424 11.535C14.6463 11.5418 14.6502 11.5486 14.6542 11.5556C14.6778 11.5969 14.7014 11.6382 14.725 11.6795C14.7444 11.7133 14.7637 11.7472 14.7831 11.781C14.7888 11.791 14.7888 11.791 14.7946 11.8011C14.8459 11.8909 14.8969 11.9809 14.9477 12.071C15.0035 12.1701 15.0605 12.2684 15.1179 12.3665C15.1696 12.4548 15.2205 12.5436 15.2712 12.6325C15.342 12.7567 15.4135 12.8804 15.4857 13.0038C15.4916 13.0138 15.4974 13.0238 15.5035 13.0341C15.5169 13.057 15.5304 13.0799 15.5439 13.1028C15.5511 13.115 15.5584 13.1273 15.5658 13.1399C15.5724 13.151 15.579 13.1622 15.5858 13.1737C15.6173 13.2305 15.624 13.2872 15.6074 13.3498C15.5672 13.4448 15.4767 13.5151 15.4 13.5809C15.3408 13.6324 15.2863 13.6883 15.2313 13.7441C15.1705 13.8058 15.1097 13.8663 15.0439 13.9226C14.994 13.9672 14.9477 14.0157 14.9007 14.0634C14.8398 14.1251 14.7791 14.1855 14.7133 14.2419C14.6633 14.2864 14.617 14.3349 14.57 14.3826C14.5092 14.4443 14.4485 14.5047 14.3827 14.5611C14.3327 14.6057 14.2864 14.6542 14.2394 14.7018C14.1252 14.8177 14.1252 14.8177 14.0744 14.8611C14.014 14.9129 13.9589 14.9702 13.903 15.0268C13.8404 15.0904 13.7777 15.1531 13.7098 15.2112C13.6599 15.2557 13.6136 15.3041 13.5667 15.3517C13.5059 15.4134 13.4452 15.4738 13.3794 15.5302C13.3294 15.5748 13.2831 15.6233 13.2361 15.671C13.1753 15.7326 13.1145 15.7931 13.0487 15.8494C12.9988 15.894 12.9524 15.9425 12.9054 15.9902C12.8446 16.0519 12.7839 16.1123 12.7181 16.1687C12.6681 16.2133 12.6218 16.2617 12.5748 16.3094C12.514 16.3711 12.4533 16.4315 12.3875 16.4879C12.3375 16.5325 12.2912 16.581 12.2442 16.6287C12.1833 16.6903 12.1226 16.7508 12.0568 16.8071C12.0068 16.8517 11.9605 16.9002 11.9135 16.9479C11.8527 17.0096 11.792 17.07 11.7262 17.1264C11.6762 17.171 11.6299 17.2195 11.5829 17.2671C11.4687 17.383 11.4687 17.383 11.4179 17.4264C11.3575 17.4782 11.3024 17.5354 11.2466 17.5921C11.184 17.6555 11.1215 17.7182 11.0538 17.7763C10.8965 17.9149 10.7498 18.0662 10.6346 18.2418C10.6201 18.2638 10.6052 18.2854 10.5901 18.307C10.4744 18.4737 10.3757 18.6527 10.2881 18.8356C10.2773 18.8579 10.2663 18.8801 10.2552 18.9023C10.0423 19.3354 9.91587 19.8182 9.8442 20.2942C9.84204 20.3081 9.83988 20.3221 9.83765 20.3365C9.79847 20.6102 9.77842 20.8853 9.76938 21.1614C9.76912 21.1691 9.76887 21.1768 9.7686 21.1847C9.7632 21.3506 9.76362 21.5161 9.76862 21.6819C9.7694 21.7079 9.77011 21.7338 9.77081 21.7597C9.77303 21.8388 9.77575 21.9177 9.78069 21.9967C9.78178 22.0153 9.78178 22.0153 9.7829 22.0342C9.78429 22.0567 9.78588 22.0792 9.78772 22.1017C9.79171 22.1677 9.78674 22.2263 9.74159 22.278C9.67711 22.3211 9.6146 22.317 9.53986 22.3166C9.5265 22.3167 9.51315 22.3167 9.49939 22.3168C9.4553 22.3169 9.41122 22.3168 9.36713 22.3167C9.33646 22.3167 9.30579 22.3168 9.27512 22.3168C9.21087 22.3169 9.14662 22.3168 9.08237 22.3166C9.00819 22.3165 8.93401 22.3165 8.85983 22.3167C8.79603 22.3169 8.73223 22.3169 8.66843 22.3168C8.63037 22.3167 8.59231 22.3167 8.55426 22.3168C8.51182 22.3169 8.46939 22.3168 8.42695 22.3166C8.4144 22.3167 8.40185 22.3167 8.38893 22.3168C8.32591 22.3163 8.27932 22.3142 8.22522 22.278C8.17965 22.2298 8.18121 22.1821 8.17962 22.1184C8.18073 22.0975 8.18188 22.0767 8.18331 22.0559C8.19465 21.8889 8.19315 21.7214 8.19313 21.5541C8.19313 21.5182 8.19321 21.4823 8.19336 21.4463C8.19467 21.1418 8.18557 20.839 8.14826 20.5364C8.14684 20.5248 8.14684 20.5248 8.14539 20.5128C8.06963 19.8938 7.92174 19.2866 7.63203 18.7309C7.62095 18.7094 7.61031 18.6877 7.59971 18.666C7.54595 18.5578 7.48189 18.4571 7.41502 18.3567C7.4085 18.3468 7.4085 18.3468 7.40185 18.3368C7.32358 18.2192 7.24331 18.1085 7.13783 18.0139C7.05827 17.941 6.98164 17.8657 6.906 17.7888C6.86842 17.7508 6.83069 17.7138 6.79009 17.679C6.72026 17.6189 6.65693 17.552 6.5923 17.4865C6.54873 17.4425 6.50543 17.3989 6.45838 17.3587C6.39206 17.3019 6.33189 17.2385 6.27063 17.1764C6.21335 17.1184 6.15576 17.0617 6.09377 17.0086C6.03288 16.9544 5.97686 16.8947 5.91963 16.8366C5.87594 16.7925 5.83251 16.7489 5.78535 16.7085C5.7159 16.649 5.65314 16.5824 5.58899 16.5174C5.5453 16.4733 5.50187 16.4296 5.45472 16.3892C5.38527 16.3298 5.3225 16.2632 5.25836 16.1981C5.21466 16.1541 5.17123 16.1104 5.12408 16.07C5.05463 16.0105 4.99187 15.944 4.92772 15.8789C4.88403 15.8348 4.8406 15.7911 4.79344 15.7508C4.72399 15.6913 4.66123 15.6247 4.59708 15.5597C4.55351 15.5157 4.51021 15.4721 4.46316 15.4319C4.39684 15.3751 4.33667 15.3117 4.27541 15.2496C4.21813 15.1916 4.16054 15.1349 4.09855 15.0818C4.03767 15.0276 3.98164 14.9678 3.92441 14.9098C3.88072 14.8657 3.83729 14.822 3.79013 14.7817C3.72068 14.7222 3.65792 14.6556 3.59377 14.5906C3.55008 14.5465 3.50665 14.5028 3.4595 14.4624C3.39005 14.4029 3.32728 14.3364 3.26314 14.2713C3.21945 14.2272 3.17602 14.1836 3.12886 14.1432C3.05941 14.0837 2.99665 14.0171 2.9325 13.9521C2.88881 13.908 2.84538 13.8643 2.79823 13.8239C2.72878 13.7645 2.66601 13.6979 2.60187 13.6328C2.54998 13.5805 2.49786 13.5296 2.44149 13.4821C2.37773 13.4256 2.33707 13.3728 2.32507 13.2874C2.32917 13.1648 2.43482 13.0378 2.49635 12.9345C2.5274 12.8822 2.55807 12.8297 2.58873 12.7772C2.59542 12.7657 2.60212 12.7542 2.60901 12.7424C2.66512 12.6461 2.72045 12.5494 2.77561 12.4526C2.82865 12.3595 2.88226 12.2667 2.93647 12.1743C2.99721 12.0707 3.05623 11.9662 3.11464 11.8612C3.15997 11.78 3.20641 11.6994 3.25356 11.6192C3.32551 11.4967 3.39464 11.3728 3.46337 11.2485C3.50207 11.1785 3.54123 11.1088 3.58064 11.0392C3.58667 11.0285 3.59271 11.0179 3.59892 11.0069C3.61102 10.9856 3.62311 10.9642 3.63521 10.9429C3.73771 10.7621 3.83962 10.581 3.94107 10.3996C3.96093 10.3641 3.98081 10.3286 4.0007 10.2931C4.14804 10.0303 4.29414 9.76687 4.43956 9.50301C4.46669 9.45379 4.49386 9.4046 4.52106 9.35542C4.59914 9.21419 4.67678 9.07275 4.75344 8.93074C4.78889 8.86514 4.82475 8.7998 4.86114 8.73472C4.91444 8.63932 4.9662 8.54311 5.0179 8.44684C5.06061 8.36734 5.10358 8.28801 5.14688 8.20883C5.21677 8.08099 5.28581 7.9527 5.35479 7.82438C5.37426 7.7882 5.39377 7.75205 5.4133 7.71591C5.49729 7.56039 5.58032 7.40438 5.66287 7.2481C5.70977 7.15933 5.75696 7.07074 5.80459 6.98237C5.89064 6.82267 5.97394 6.66168 6.05665 6.50024C6.06086 6.49203 6.06507 6.48382 6.0694 6.47535C6.07353 6.4673 6.07766 6.45924 6.08191 6.45094C6.1126 6.3911 6.14366 6.33148 6.17513 6.27205C6.23499 6.15892 6.29376 6.04524 6.35244 5.93149C6.37588 5.88605 6.39933 5.84061 6.42286 5.79521C6.57231 5.50672 6.71808 5.21643 6.86326 4.92577C6.89568 4.86088 6.92813 4.79601 6.9606 4.73114C6.98614 4.68011 7.01165 4.62906 7.03716 4.57801C7.04911 4.5541 7.06107 4.5302 7.07303 4.5063C7.15043 4.35165 7.22608 4.19627 7.3003 4.04008C7.31759 4.0038 7.33506 3.96762 7.35258 3.93145C7.43309 3.76519 7.5118 3.59817 7.58912 3.4304C7.60325 3.39974 7.61743 3.3691 7.63164 3.33847C7.76103 3.05953 7.88646 2.779 8.0086 2.49681C8.01483 2.4824 8.01483 2.4824 8.0212 2.4677C8.51866 1.35023 8.51866 1.35023 8.80109 0.166433C8.81096 0.098729 8.83556 0.0573917 8.88649 0.0113334C8.93212 -0.011478 8.98524 -0.00729128 9.03471 -6.78224e-05ZM8.9663 0.912032C8.96281 0.922615 8.95933 0.933198 8.95573 0.944101C8.91407 1.07037 8.87194 1.19647 8.82949 1.32248C8.8269 1.33017 8.82431 1.33787 8.82165 1.3458C8.5579 2.12956 8.20989 2.8884 7.86038 3.63693C7.8564 3.64547 7.85241 3.654 7.84831 3.66279C7.75234 3.86836 7.65498 4.07322 7.55602 4.27736C7.52564 4.34003 7.49554 4.40282 7.46553 4.46566C7.40997 4.58196 7.35315 4.69753 7.29521 4.81266C7.25655 4.88967 7.21897 4.96714 7.18201 5.04499C7.09696 5.22389 7.00882 5.40117 6.91568 5.576C6.86599 5.6699 6.8189 5.76508 6.77156 5.86018C6.71759 5.96856 6.66353 6.07679 6.60655 6.18364C6.55904 6.27298 6.51302 6.36308 6.46688 6.45314C6.36909 6.644 6.27025 6.83417 6.16881 7.02312C6.16516 7.02991 6.16151 7.03671 6.15776 7.04371C6.15035 7.0575 6.14295 7.07128 6.13555 7.08506C6.08383 7.18135 6.03293 7.27802 5.98274 7.37512C5.93287 7.47153 5.88178 7.56715 5.82948 7.66226C5.77572 7.76029 5.72352 7.85913 5.67134 7.95801C5.60876 8.07655 5.54582 8.19485 5.48132 8.31236C5.44489 8.37875 5.40894 8.44538 5.37319 8.51214C5.31652 8.61792 5.25911 8.72313 5.19961 8.82735C5.14214 8.92805 5.08712 9.02988 5.03287 9.13233C4.97293 9.24552 4.91162 9.35768 4.84809 9.46889C4.80197 9.54985 4.75757 9.63164 4.71364 9.7138C4.6578 9.81814 4.60069 9.92162 4.54219 10.0245C4.49454 10.1083 4.44755 10.1924 4.40081 10.2767C4.32583 10.4119 4.25041 10.5469 4.17479 10.6817C4.15475 10.7175 4.13473 10.7533 4.11471 10.7891C3.9922 11.0081 3.86883 11.2267 3.74418 11.4445C3.69273 11.5344 3.64151 11.6245 3.59061 11.7147C3.47342 11.9224 3.35522 12.1295 3.23475 12.3352C3.18394 12.4221 3.13384 12.5094 3.08397 12.5969C2.95969 12.8148 2.83479 13.0323 2.70702 13.2482C2.7328 13.2836 2.7604 13.3129 2.79359 13.3412C2.86466 13.402 2.92897 13.4696 2.99458 13.5362C3.03828 13.5803 3.08171 13.6239 3.12886 13.6643C3.19831 13.7238 3.26108 13.7904 3.32522 13.8554C3.36891 13.8995 3.41234 13.9432 3.4595 13.9836C3.52895 14.043 3.59171 14.1096 3.65586 14.1747C3.69955 14.2187 3.74298 14.2624 3.79013 14.3028C3.85958 14.3623 3.92235 14.4288 3.98649 14.4939C4.03019 14.538 4.07362 14.5817 4.12077 14.622C4.19022 14.6815 4.25299 14.7481 4.31713 14.8131C4.36082 14.8572 4.40425 14.9009 4.45141 14.9413C4.52086 15.0008 4.58362 15.0673 4.64777 15.1324C4.69146 15.1765 4.73489 15.2201 4.78204 15.2605C4.85149 15.32 4.91426 15.3865 4.9784 15.4516C5.02209 15.4957 5.06552 15.5394 5.11268 15.5797C5.18213 15.6392 5.24489 15.7058 5.30904 15.7708C5.35261 15.8148 5.39591 15.8584 5.44296 15.8986C5.50928 15.9554 5.56945 16.0188 5.63071 16.0809C5.688 16.1389 5.74559 16.1956 5.80758 16.2487C5.86846 16.3029 5.92448 16.3627 5.98171 16.4207C6.0254 16.4648 6.06883 16.5085 6.11599 16.5488C6.18544 16.6083 6.2482 16.6749 6.31235 16.74C6.35604 16.784 6.39947 16.8277 6.44663 16.8681C6.51607 16.9276 6.57884 16.9941 6.64298 17.0592C6.68668 17.1033 6.73011 17.1469 6.77726 17.1873C6.84671 17.2468 6.90948 17.3134 6.97362 17.3784C7.01731 17.4225 7.06074 17.4662 7.1079 17.5066C7.17735 17.566 7.24011 17.6326 7.30426 17.6977C7.34795 17.7417 7.39138 17.7854 7.43853 17.8258C7.50798 17.8853 7.57075 17.9518 7.63489 18.0169C7.67859 18.061 7.72202 18.1046 7.76917 18.145C7.83862 18.2045 7.90139 18.2711 7.96553 18.3361C8.01727 18.3883 8.0695 18.4387 8.12534 18.4865C8.15526 18.5128 8.18209 18.5415 8.20954 18.5704C8.41209 18.7769 8.67862 18.8985 8.96915 18.9068C9.27349 18.9005 9.52936 18.7738 9.74159 18.5612C9.75026 18.5525 9.75893 18.5439 9.76786 18.535C9.78218 18.5206 9.79646 18.5062 9.81068 18.4917C9.83086 18.4719 9.85158 18.4535 9.87319 18.4353C9.935 18.3816 9.99197 18.323 10.0494 18.2647C10.1121 18.2012 10.1748 18.1384 10.2427 18.0804C10.2926 18.0359 10.3388 17.9874 10.3858 17.9398C10.4466 17.8781 10.5073 17.8177 10.5731 17.7613C10.6231 17.7167 10.6694 17.6682 10.7164 17.6206C10.7772 17.5589 10.8379 17.4984 10.9037 17.4421C10.9537 17.3975 11 17.349 11.047 17.3013C11.1078 17.2396 11.1686 17.1792 11.2344 17.1229C11.2843 17.0783 11.3307 17.0298 11.3777 16.9821C11.4385 16.9204 11.4992 16.86 11.565 16.8036C11.615 16.759 11.6613 16.7105 11.7083 16.6629C11.7691 16.6012 11.8298 16.5407 11.8956 16.4844C11.9456 16.4398 11.9919 16.3913 12.0389 16.3436C12.0998 16.2819 12.1605 16.2215 12.2263 16.1651C12.2763 16.1206 12.3226 16.0721 12.3696 16.0244C12.4838 15.9085 12.4838 15.9085 12.5345 15.8651C12.595 15.8134 12.6501 15.7561 12.7059 15.6995C12.7686 15.6359 12.8313 15.5732 12.8992 15.5151C12.9491 15.4706 12.9953 15.4221 13.0422 15.3745C13.1031 15.3128 13.1638 15.2524 13.2296 15.196C13.2796 15.1514 13.3259 15.103 13.3729 15.0553C13.4337 14.9936 13.4944 14.9332 13.5602 14.8768C13.6102 14.8322 13.6565 14.7837 13.7035 14.736C13.7643 14.6744 13.8251 14.6139 13.8909 14.5576C13.9408 14.513 13.9872 14.4645 14.0342 14.4168C14.095 14.3551 14.1557 14.2947 14.2215 14.2383C14.2715 14.1937 14.3178 14.1453 14.3648 14.0976C14.4256 14.0359 14.4863 13.9755 14.5521 13.9191C14.6021 13.8745 14.6484 13.826 14.6954 13.7783C14.7562 13.7167 14.817 13.6562 14.8828 13.5999C14.9327 13.5553 14.9791 13.5068 15.0261 13.4591C15.0943 13.3899 15.1626 13.3222 15.237 13.2596C15.1973 13.1775 15.1537 13.0986 15.1073 13.0202C15.0931 12.9959 15.0788 12.9717 15.0646 12.9474C15.0536 12.9287 15.0536 12.9287 15.0425 12.9097C15.0066 12.8483 14.9711 12.7868 14.9356 12.7252C14.9285 12.7128 14.9214 12.7005 14.9141 12.6878C14.8997 12.6628 14.8853 12.6378 14.8709 12.6128C14.8496 12.5759 14.8283 12.539 14.8069 12.5021C14.7144 12.3419 14.6223 12.1813 14.5306 12.0205C14.5034 11.973 14.4762 11.9255 14.4491 11.8779C14.36 11.7223 14.2713 11.5664 14.1832 11.4102C14.1526 11.3559 14.1219 11.3016 14.0912 11.2473C14.0788 11.2254 14.0664 11.2035 14.0541 11.1816C14.0295 11.1382 14.005 11.0948 13.9804 11.0514C13.8963 10.9028 13.8127 10.7538 13.7293 10.6048C13.7094 10.5693 13.6896 10.5338 13.6697 10.4983C13.5794 10.3374 13.4896 10.1761 13.4001 10.0148C13.3788 9.97643 13.3575 9.93811 13.3362 9.89978C13.2437 9.73347 13.1516 9.56696 13.0597 9.40029C13.0328 9.35137 13.0057 9.30248 12.9787 9.25361C12.8917 9.09641 12.8057 8.93875 12.7207 8.78045C12.6854 8.7147 12.6498 8.64914 12.614 8.58365C12.4879 8.35281 12.363 8.1213 12.2385 7.8896C12.2284 7.87083 12.2284 7.87083 12.2181 7.85168C12.0622 7.56153 11.9076 7.27064 11.7556 6.97843C11.7272 6.92386 11.6985 6.86943 11.6698 6.81503C11.6169 6.7148 11.5648 6.61419 11.5127 6.51351C11.4797 6.44968 11.4465 6.38597 11.413 6.32242C11.3517 6.20628 11.2912 6.08974 11.2313 5.97285C11.2264 5.96317 11.2214 5.95348 11.2163 5.9435C11.077 5.67139 10.9404 5.39787 10.8038 5.12439C10.7753 5.06732 10.7468 5.01027 10.7182 4.95323C10.69 4.8969 10.6619 4.84056 10.6337 4.78422C10.6172 4.75112 10.6006 4.71803 10.584 4.68494C10.4681 4.45329 10.3562 4.21986 10.2461 3.98538C10.2383 3.96884 10.2305 3.95229 10.2228 3.93574C10.2109 3.91035 10.1989 3.88495 10.187 3.85956C10.1645 3.8117 10.142 3.76387 10.1194 3.71609C10.0201 3.50636 9.9246 3.29516 9.83095 3.08287C9.80803 3.031 9.78483 2.97927 9.76136 2.92765C9.59985 2.57216 9.44955 2.21096 9.30834 1.84694C9.30512 1.83864 9.3019 1.83035 9.29858 1.82181C9.20303 1.5755 9.11418 1.32794 9.03511 1.07582C9.03217 1.06651 9.02923 1.0572 9.0262 1.0476C9.02071 1.03019 9.01528 1.01276 9.00992 0.995307C8.99562 0.94942 8.99562 0.94942 8.9663 0.912032ZM9.98101 18.8006C9.97532 18.8067 9.96964 18.8128 9.96378 18.819C9.7225 19.0694 9.38838 19.2362 9.03765 19.2476C8.63587 19.2537 8.30316 19.1192 8.0086 18.8462C7.99203 18.8959 8.0151 18.9293 8.03496 18.9752C8.06584 19.0477 8.0927 19.1202 8.11468 19.196C8.11924 19.2112 8.12381 19.2265 8.12838 19.2417C8.13732 19.2715 8.14553 19.3013 8.15346 19.3314C8.18894 19.449 8.24801 19.496 8.35063 19.5531C8.36103 19.5592 8.37142 19.5654 8.38213 19.5717C8.41047 19.5882 8.43911 19.6036 8.46821 19.6186C8.47842 19.6239 8.48862 19.6292 8.49914 19.6347C8.76531 19.7692 9.04713 19.7951 9.33124 19.7055C9.41522 19.6772 9.49234 19.6393 9.56843 19.5944C9.57497 19.5905 9.58152 19.5867 9.58826 19.5827C9.60943 19.5697 9.62982 19.5557 9.65038 19.5417C9.65962 19.5362 9.66887 19.5307 9.6784 19.525C9.7807 19.4566 9.80163 19.3655 9.83422 19.2531C9.84553 19.2162 9.8571 19.1793 9.86865 19.1425C9.87141 19.1335 9.87418 19.1246 9.87703 19.1154C9.90205 19.035 9.93287 18.9581 9.96795 18.8816C9.97664 18.8624 9.98462 18.8429 9.99241 18.8234C9.98865 18.8159 9.98489 18.8083 9.98101 18.8006ZM8.30503 19.8495C8.31405 19.9001 8.32308 19.9507 8.33211 20.0013C8.33463 20.0155 8.33716 20.0296 8.33977 20.0442C8.34479 20.0724 8.34992 20.1005 8.35515 20.1287C8.35952 20.1541 8.36321 20.1797 8.36596 20.2054C8.3715 20.2637 8.3715 20.2637 8.40165 20.3115C8.42427 20.3253 8.44619 20.3348 8.47106 20.344C8.47961 20.3476 8.48816 20.3512 8.49697 20.3549C8.79629 20.4763 9.11096 20.4972 9.41367 20.3731C9.47068 20.3486 9.52647 20.3219 9.58197 20.2942C9.58903 20.2668 9.59466 20.2402 9.59956 20.2123C9.60107 20.2041 9.60259 20.1959 9.60415 20.1874C9.60733 20.17 9.61046 20.1525 9.61354 20.1351C9.61827 20.1084 9.62321 20.0817 9.62818 20.0551C9.63124 20.0382 9.63429 20.0212 9.63733 20.0043C9.63881 19.9963 9.64029 19.9884 9.64182 19.9802C9.64857 19.9412 9.65304 19.9099 9.63898 19.8723C9.62588 19.8784 9.61279 19.8844 9.59929 19.8907C9.25505 20.048 8.90009 20.0867 8.54018 19.9535C8.46017 19.9225 8.38241 19.8866 8.30503 19.8495ZM9.45973 20.6474C9.14545 20.756 8.80017 20.7731 8.48781 20.6446C8.46339 20.6343 8.46339 20.6343 8.43044 20.6362C8.43209 20.6737 8.43376 20.7113 8.43543 20.7488C8.43588 20.759 8.43633 20.7693 8.43679 20.7798C8.43941 20.8383 8.44246 20.8967 8.44616 20.9551C8.45355 21.0758 8.45474 21.196 8.45436 21.3168C8.45434 21.3352 8.45433 21.3535 8.45432 21.3719C8.45426 21.4388 8.45411 21.5056 8.45396 21.5725C8.45372 21.7226 8.45349 21.8726 8.45325 22.0272C8.80315 22.0272 9.15305 22.0272 9.51356 22.0272C9.51267 21.7274 9.51267 21.7274 9.51151 21.4276C9.51098 21.2158 9.51415 21.0059 9.53143 20.7947C9.53604 20.7378 9.53732 20.6818 9.53636 20.6248C9.50988 20.6248 9.48455 20.6387 9.45973 20.6474Z" fill="black"/>
<path d="M14.2399 24.5766C14.2671 24.5768 14.2942 24.5766 14.3213 24.5764C14.4575 24.5762 14.5794 24.593 14.7018 24.6566C14.7134 24.6625 14.7134 24.6625 14.7252 24.6686C14.797 24.7068 14.8586 24.753 14.9177 24.8091C14.9266 24.8175 14.9355 24.8259 14.9446 24.8345C15.1308 25.0259 15.1893 25.2628 15.1867 25.5234C15.1777 25.8033 15.0683 26.013 14.8676 26.2031C14.6539 26.3885 14.3792 26.4128 14.1082 26.3939C13.8757 26.3674 13.669 26.2188 13.5268 26.0405C13.3681 25.8129 13.3358 25.5287 13.3807 25.2595C13.4376 25.0145 13.5818 24.8199 13.7924 24.6842C13.9342 24.5972 14.077 24.5753 14.2399 24.5766ZM13.8079 25.0058C13.677 25.1417 13.6305 25.3004 13.6244 25.4868C13.6289 25.6814 13.6947 25.8472 13.8346 25.9834C13.9718 26.1089 14.1279 26.1492 14.311 26.1451C14.5068 26.1344 14.6486 26.0561 14.7808 25.9133C14.8838 25.7912 14.9223 25.64 14.9213 25.4832C14.9212 25.4732 14.9212 25.4632 14.9211 25.4529C14.9198 25.3782 14.9103 25.3125 14.8835 25.2424C14.8804 25.2327 14.8772 25.2231 14.8739 25.2132C14.8242 25.0725 14.7128 24.9577 14.5806 24.89C14.3181 24.7718 14.0179 24.8039 13.8079 25.0058Z" fill="black"/>
<path d="M9.38818 24.5924C10.3206 24.5924 10.3206 24.5924 10.6008 24.8562C10.7716 25.0414 10.8337 25.2793 10.828 25.5264C10.8132 25.7795 10.7257 25.989 10.5395 26.1647C10.2179 26.4354 9.78121 26.371 9.38818 26.371C9.38818 25.7841 9.38818 25.1971 9.38818 24.5924ZM9.65041 24.8432C9.65041 25.2646 9.65041 25.686 9.65041 26.1202C10.0715 26.127 10.0715 26.127 10.4096 25.9223C10.5238 25.7972 10.5699 25.6243 10.5653 25.4569C10.5499 25.2804 10.5028 25.1266 10.3687 25.0029C10.1549 24.8307 9.91874 24.8432 9.65041 24.8432Z" fill="black"/>
<path d="M5.40912 27.8989C5.4618 27.8989 5.51447 27.8989 5.56874 27.8989C5.63213 28.0299 5.68732 28.1635 5.74181 28.2984C5.77081 28.3702 5.80038 28.4417 5.83026 28.5132C5.87132 28.6114 5.91215 28.7098 5.95282 28.8082C6.00192 28.927 6.05122 29.0457 6.10067 29.1643C6.11164 29.1906 6.1226 29.2169 6.13356 29.2433C6.16626 29.3217 6.19902 29.4002 6.23202 29.4786C6.23739 29.4914 6.24277 29.5042 6.24831 29.5174C6.25817 29.5408 6.26806 29.5643 6.27798 29.5877C6.28224 29.5979 6.2865 29.608 6.29089 29.6185C6.29458 29.6272 6.29827 29.6359 6.30207 29.6449C6.30982 29.6661 6.30982 29.6661 6.30982 29.6889C6.21576 29.6889 6.1217 29.6889 6.02479 29.6889C5.98781 29.6076 5.9518 29.5267 5.91862 29.4438C5.91452 29.4338 5.91043 29.4237 5.90621 29.4134C5.90236 29.4038 5.8985 29.3942 5.89452 29.3843C5.89106 29.3757 5.88761 29.3671 5.88404 29.3583C5.87657 29.3355 5.87657 29.3355 5.87657 29.3013C5.62449 29.3013 5.37241 29.3013 5.11269 29.3013C5.1014 29.3351 5.09012 29.369 5.07849 29.4039C5.0693 29.4281 5.05989 29.4522 5.05021 29.4763C5.04517 29.4888 5.04014 29.5013 5.03495 29.5142C5.02723 29.5333 5.02723 29.5333 5.01934 29.5528C5.01406 29.566 5.00878 29.5791 5.00333 29.5926C4.99041 29.6247 4.97744 29.6568 4.96447 29.6889C4.87041 29.6889 4.77635 29.6889 4.67944 29.6889C4.68972 29.6376 4.70508 29.5939 4.72536 29.5462C4.72883 29.5379 4.7323 29.5296 4.73587 29.5211C4.74718 29.4941 4.75856 29.4672 4.76994 29.4402C4.77781 29.4215 4.78568 29.4027 4.79354 29.384C4.80915 29.3468 4.8248 29.3096 4.84046 29.2723C4.86747 29.2082 4.89426 29.1439 4.92101 29.0797C4.92547 29.069 4.92994 29.0582 4.93454 29.0472C5.02946 28.8193 5.1235 28.591 5.2171 28.3626C5.28054 28.2078 5.34449 28.0532 5.40912 27.8989ZM5.48893 28.355C5.48538 28.3638 5.48184 28.3727 5.47818 28.3819C5.47037 28.4014 5.46255 28.4209 5.45474 28.4405C5.43949 28.4786 5.42425 28.5167 5.40902 28.5548C5.37895 28.6301 5.34882 28.7053 5.31845 28.7804C5.31329 28.7932 5.30814 28.8059 5.30283 28.8191C5.29316 28.8431 5.28346 28.8671 5.27372 28.891C5.26934 28.9019 5.26497 28.9127 5.26046 28.9239C5.25668 28.9333 5.25289 28.9426 5.24899 28.9522C5.23587 28.9881 5.2258 29.0251 5.2153 29.0619C5.39966 29.0619 5.58402 29.0619 5.77396 29.0619C5.7394 28.9564 5.7394 28.9564 5.70008 28.8536C5.69509 28.8414 5.69009 28.8293 5.68495 28.8168C5.67976 28.8043 5.67456 28.7918 5.66921 28.779C5.61128 28.6383 5.55528 28.4969 5.50033 28.355C5.49657 28.355 5.49281 28.355 5.48893 28.355Z" fill="black"/>
<path d="M9.753 27.8989C9.80567 27.8989 9.85834 27.8989 9.91261 27.8989C9.95 27.972 9.98407 28.045 10.0145 28.1213C10.0234 28.1433 10.0323 28.1653 10.0412 28.1873C10.0461 28.1993 10.051 28.2114 10.056 28.2238C10.0875 28.3014 10.1194 28.3788 10.1513 28.4562C10.1548 28.4645 10.1582 28.4729 10.1618 28.4815C10.2089 28.596 10.2563 28.7103 10.3039 28.8245C10.3454 28.9237 10.3865 29.0231 10.4275 29.1225C10.4612 29.2042 10.4952 29.2857 10.5294 29.3671C10.5413 29.3955 10.5531 29.4238 10.565 29.4522C10.5728 29.4708 10.5806 29.4893 10.5884 29.5079C10.5994 29.5338 10.6102 29.5598 10.6211 29.5857C10.6244 29.5935 10.6277 29.6014 10.6311 29.6094C10.6537 29.6635 10.6537 29.6635 10.6537 29.6889C10.5596 29.6889 10.4656 29.6889 10.3687 29.6889C10.2204 29.3397 10.2204 29.3397 10.2204 29.3013C9.96837 29.3013 9.71628 29.3013 9.45656 29.3013C9.44528 29.3351 9.43399 29.369 9.42236 29.4039C9.41317 29.4281 9.40376 29.4522 9.39408 29.4763C9.38905 29.4888 9.38401 29.5013 9.37883 29.5142C9.3711 29.5333 9.3711 29.5333 9.36322 29.5528C9.35793 29.566 9.35265 29.5791 9.3472 29.5926C9.33428 29.6247 9.32132 29.6568 9.30835 29.6889C9.21429 29.6889 9.12023 29.6889 9.02332 29.6889C9.0618 29.5735 9.0618 29.5735 9.0785 29.533C9.08231 29.5238 9.08612 29.5145 9.09005 29.5049C9.09413 29.4951 9.09821 29.4853 9.10241 29.4751C9.10681 29.4645 9.1112 29.4538 9.11573 29.4428C9.1305 29.407 9.14531 29.3713 9.16013 29.3355C9.17118 29.3087 9.18222 29.282 9.19327 29.2552C9.24182 29.1377 9.29051 29.0202 9.33959 28.9028C9.39153 28.7786 9.44248 28.6539 9.49305 28.5291C9.57839 28.3185 9.66555 28.1087 9.753 27.8989ZM9.8328 28.355C9.82938 28.3635 9.82595 28.3721 9.82242 28.3809C9.81197 28.4071 9.80153 28.4332 9.79108 28.4593C9.7789 28.4897 9.76672 28.5202 9.75454 28.5507C9.72519 28.6241 9.69581 28.6975 9.6662 28.7709C9.65351 28.8023 9.64084 28.8338 9.62818 28.8653C9.62208 28.8804 9.61597 28.8955 9.60985 28.9106C9.6013 28.9318 9.59279 28.9529 9.58429 28.974C9.577 28.9921 9.577 28.9921 9.56956 29.0105C9.55788 29.0376 9.55788 29.0376 9.55917 29.0619C9.74353 29.0619 9.92789 29.0619 10.1178 29.0619C10.0903 28.9689 10.0903 28.9689 10.0569 28.8794C10.0494 28.8613 10.0494 28.8613 10.0418 28.8428C10.0366 28.8302 10.0313 28.8176 10.0259 28.8046C10.0148 28.7776 10.0036 28.7505 9.99251 28.7235C9.98686 28.7097 9.9812 28.696 9.97538 28.6819C9.94763 28.6142 9.92048 28.5462 9.89337 28.4783C9.88595 28.4597 9.88595 28.4597 9.87838 28.4407C9.86698 28.4121 9.85559 28.3836 9.84421 28.355C9.84044 28.355 9.83668 28.355 9.8328 28.355Z" fill="black"/>
<path d="M3.98762 24.7514C3.99774 24.7591 4.00785 24.7669 4.01827 24.7749C4.00405 24.8473 3.98892 24.9195 3.97266 24.9915C3.95342 25 3.95342 25 3.92706 25.0029C3.89993 24.9829 3.89993 24.9829 3.87005 24.9573C3.73722 24.8842 3.58922 24.8342 3.4368 24.8319C3.42747 24.8317 3.41814 24.8316 3.40852 24.8314C3.31908 24.8351 3.22772 24.8686 3.16464 24.9337C3.13115 24.9825 3.12013 25.0231 3.12897 25.0827C3.15103 25.1548 3.20304 25.1841 3.26578 25.2195C3.30399 25.2355 3.34288 25.2473 3.38265 25.2587C3.4048 25.2654 3.42695 25.2722 3.44909 25.279C3.46029 25.2823 3.47148 25.2857 3.48301 25.2892C3.94433 25.4286 3.94433 25.4286 4.0512 25.6166C4.08977 25.6919 4.10447 25.7653 4.10377 25.8494C4.1037 25.8588 4.10363 25.8683 4.10355 25.878C4.09951 26.0148 4.04704 26.1265 3.94986 26.2228C3.91361 26.2528 3.8761 26.2784 3.83585 26.3026C3.82875 26.3071 3.82165 26.3115 3.81433 26.316C3.62565 26.422 3.37148 26.4248 3.16637 26.3733C3.06312 26.3436 2.96867 26.304 2.87814 26.2456C2.86753 26.2393 2.85692 26.233 2.84599 26.2264C2.77892 26.182 2.77892 26.182 2.77063 26.1424C2.77292 26.1144 2.77893 26.0902 2.78693 26.0632C2.78983 26.0518 2.79272 26.0405 2.7957 26.0288C2.80365 25.9983 2.81215 25.968 2.82113 25.9378C2.864 25.9441 2.89044 25.9549 2.92517 25.9805C3.11363 26.1103 3.34225 26.154 3.56694 26.1185C3.66594 26.0951 3.74452 26.0557 3.80178 25.9701C3.83636 25.906 3.83198 25.8385 3.81233 25.7703C3.72847 25.627 3.54738 25.5841 3.3969 25.5437C3.20194 25.4909 3.02479 25.4357 2.90094 25.2651C2.84126 25.1591 2.83812 25.0183 2.86892 24.9023C2.92077 24.7626 3.02098 24.6813 3.15186 24.6178C3.42652 24.5052 3.75406 24.5865 3.98762 24.7514Z" fill="black"/>
<path d="M13.6637 27.8989C13.7502 27.8989 13.8367 27.8989 13.9259 27.8989C13.926 27.9318 13.9261 27.9647 13.9262 27.9986C13.9266 28.1079 13.9272 28.2172 13.928 28.3265C13.9284 28.3927 13.9288 28.4589 13.929 28.5251C13.9292 28.5891 13.9295 28.6532 13.9301 28.7172C13.9303 28.7415 13.9303 28.7657 13.9304 28.79C13.9305 28.9902 13.9367 29.2061 14.0855 29.3583C14.1899 29.4394 14.2988 29.4471 14.4275 29.4381C14.5239 29.4234 14.5975 29.3772 14.6616 29.3042C14.7454 29.1852 14.7596 29.0252 14.7605 28.8839C14.7606 28.8732 14.7607 28.8625 14.7609 28.8515C14.7612 28.8164 14.7615 28.7813 14.7618 28.7462C14.762 28.7218 14.7623 28.6974 14.7625 28.6729C14.7631 28.6088 14.7637 28.5447 14.7642 28.4806C14.7648 28.4151 14.7655 28.3496 14.7661 28.2841C14.7673 28.1557 14.7685 28.0273 14.7696 27.8989C14.8561 27.8989 14.9427 27.8989 15.0318 27.8989C15.0323 28.0402 15.0327 28.1814 15.033 28.3226C15.0331 28.3882 15.0333 28.4538 15.0335 28.5194C15.0338 28.5829 15.0339 28.6463 15.034 28.7097C15.034 28.7338 15.0341 28.7579 15.0342 28.782C15.0356 29.0569 15.0202 29.3265 14.8207 29.5374C14.6453 29.699 14.4528 29.7101 14.2257 29.7029C14.1527 29.6979 14.093 29.6784 14.0285 29.6433C14.0174 29.6375 14.0063 29.6317 13.9948 29.6258C13.8407 29.5369 13.7507 29.3936 13.6964 29.2278C13.6711 29.1304 13.662 29.0359 13.6624 28.9357C13.6624 28.9244 13.6624 28.9132 13.6624 28.9016C13.6624 28.8647 13.6625 28.8277 13.6625 28.7908C13.6626 28.7651 13.6626 28.7394 13.6626 28.7137C13.6626 28.6462 13.6628 28.5787 13.6629 28.5112C13.663 28.4422 13.663 28.3733 13.6631 28.3044C13.6632 28.1692 13.6634 28.0341 13.6637 27.8989Z" fill="black"/>
<path d="M7.01669 24.5924C7.10322 24.5924 7.18976 24.5924 7.27892 24.5924C7.2792 24.6242 7.27949 24.656 7.27978 24.6888C7.28074 24.7942 7.28175 24.8997 7.28279 25.0051C7.28341 25.069 7.28402 25.1329 7.28459 25.1968C7.28514 25.2585 7.28573 25.3202 7.28636 25.382C7.28659 25.4054 7.28681 25.4289 7.287 25.4524C7.2809 25.7623 7.2809 25.7623 7.42464 26.0267C7.51771 26.1131 7.6107 26.1357 7.73648 26.134C7.8304 26.1271 7.91578 26.0924 7.9858 26.029C8.12975 25.852 8.113 25.6139 8.11482 25.3996C8.11505 25.3763 8.11529 25.3529 8.11553 25.3296C8.11616 25.2686 8.11673 25.2075 8.11728 25.1465C8.11785 25.084 8.11849 25.0216 8.11911 24.9591C8.12034 24.8369 8.12149 24.7147 8.12261 24.5924C8.20915 24.5924 8.29568 24.5924 8.38484 24.5924C8.38536 24.7335 8.38577 24.8745 8.38602 25.0155C8.38614 25.081 8.3863 25.1466 8.38656 25.2121C8.38681 25.2754 8.38694 25.3388 8.387 25.4021C8.38704 25.4262 8.38713 25.4502 8.38725 25.4742C8.38859 25.7453 8.37656 25.9982 8.18532 26.2085C8.17591 26.217 8.16651 26.2255 8.15681 26.2342C8.15113 26.2397 8.14544 26.2451 8.13958 26.2508C8.01889 26.3622 7.86524 26.4005 7.70433 26.3995C7.69243 26.3994 7.68053 26.3994 7.66827 26.3993C7.49633 26.3954 7.36444 26.3451 7.23616 26.2285C7.2277 26.2191 7.21923 26.2097 7.21051 26.2C7.20518 26.1946 7.19984 26.1891 7.19434 26.1835C7.049 26.0285 7.01457 25.8102 7.0154 25.6059C7.01539 25.5948 7.01539 25.5838 7.01539 25.5725C7.0154 25.5364 7.01549 25.5003 7.01558 25.4642C7.0156 25.439 7.01561 25.4139 7.01562 25.3887C7.01567 25.3228 7.01578 25.2568 7.01591 25.1909C7.01602 25.1234 7.01608 25.056 7.01613 24.9886C7.01625 24.8566 7.01646 24.7245 7.01669 24.5924Z" fill="black"/>
<path d="M11.3378 27.8989C11.4318 27.8989 11.5259 27.8989 11.6228 27.8989C11.6426 27.937 11.6623 27.9751 11.6827 28.0144C11.7732 28.1882 11.8668 28.3603 11.9637 28.5307C11.9995 28.5941 12.032 28.6589 12.0639 28.7244C12.0762 28.7525 12.0762 28.7525 12.0903 28.7654C12.0954 28.7557 12.1006 28.7459 12.1059 28.7359C12.2042 28.5502 12.303 28.3646 12.4041 28.1804C12.4354 28.1232 12.4666 28.0659 12.4978 28.0087C12.5176 27.9724 12.5374 27.9362 12.5577 27.8989C12.6518 27.8989 12.7458 27.8989 12.8427 27.8989C12.8275 27.9446 12.817 27.976 12.7938 28.0156C12.786 28.0291 12.786 28.0291 12.778 28.0428C12.7723 28.0525 12.7666 28.0621 12.7608 28.0721C12.7484 28.0935 12.7359 28.115 12.7236 28.1364C12.717 28.1478 12.7104 28.1592 12.7036 28.1709C12.6679 28.2334 12.6331 28.2963 12.5983 28.3593C12.5445 28.4564 12.4905 28.5533 12.4359 28.65C12.4306 28.6593 12.4253 28.6686 12.4199 28.6782C12.4145 28.6877 12.4092 28.6971 12.4037 28.7069C12.3979 28.7174 12.3922 28.728 12.3863 28.7388C12.3684 28.7692 12.3498 28.797 12.3294 28.8257C12.2152 28.994 12.2079 29.1448 12.2124 29.3445C12.2131 29.3835 12.213 29.4225 12.213 29.4615C12.2132 29.5373 12.2141 29.6131 12.2157 29.6889C12.1741 29.6893 12.1325 29.6895 12.091 29.6896C12.0791 29.6897 12.0672 29.6898 12.055 29.6899C12.0437 29.69 12.0324 29.69 12.0208 29.69C12.0104 29.6901 11.9999 29.6902 11.9892 29.6902C11.9648 29.6889 11.9648 29.6889 11.9534 29.6775C11.9532 29.6587 11.9538 29.6399 11.9547 29.6211C11.9554 29.6029 11.9554 29.6029 11.9562 29.5844C11.9568 29.5712 11.9574 29.5579 11.9579 29.5443C11.9839 29.1343 11.9839 29.1343 11.8175 28.7747C11.7763 28.7189 11.7452 28.6574 11.7127 28.5961C11.6939 28.5607 11.6744 28.5257 11.655 28.4906C11.6513 28.4839 11.6476 28.4771 11.6437 28.4702C11.6095 28.4084 11.5746 28.3471 11.5394 28.2859C11.4938 28.2063 11.4485 28.1266 11.404 28.0464C11.3987 28.0369 11.3933 28.0273 11.3878 28.0174C11.3829 28.0085 11.378 27.9996 11.3729 27.9904C11.3686 27.9827 11.3643 27.9749 11.3598 27.9668C11.3492 27.9445 11.3492 27.9445 11.3378 27.8989Z" fill="black"/>
<path d="M11.6911 24.5924C11.9583 24.5924 12.2254 24.5924 12.5006 24.5924C12.5006 24.6677 12.5006 24.7429 12.5006 24.8204C12.495 24.8261 12.495 24.8261 12.4892 24.8318C12.4027 24.8318 12.3162 24.8318 12.227 24.8318C12.227 25.2607 12.227 25.6897 12.227 26.1316C12.3248 26.1316 12.4226 26.1316 12.5234 26.1316C12.5234 26.2106 12.5234 26.2896 12.5234 26.371C12.2412 26.371 11.9591 26.371 11.6683 26.371C11.6683 26.292 11.6683 26.213 11.6683 26.1316C11.7662 26.1316 11.864 26.1316 11.9648 26.1316C11.9648 25.7027 11.9648 25.2737 11.9648 24.8318C11.8745 24.8318 11.7842 24.8318 11.6911 24.8318C11.6911 24.7528 11.6911 24.6738 11.6911 24.5924Z" fill="black"/>
<path d="M7.05078 27.8989C7.45712 27.8989 7.86346 27.8989 8.28212 27.8989C8.28212 27.9779 8.28212 28.0569 8.28212 28.1384C8.12033 28.1384 7.95855 28.1384 7.79186 28.1384C7.79186 28.65 7.79186 29.1617 7.79186 29.6889C7.70533 29.6889 7.61879 29.6889 7.52963 29.6889C7.52963 29.1772 7.52963 28.6655 7.52963 28.1384C7.37161 28.1384 7.21359 28.1384 7.05078 28.1384C7.05078 28.0593 7.05078 27.9803 7.05078 27.8989Z" fill="black"/>
<path d="M4.90747 24.5924C5.31381 24.5924 5.72015 24.5924 6.13881 24.5924C6.13881 24.6714 6.13881 24.7504 6.13881 24.8318C5.97702 24.8318 5.81524 24.8318 5.64855 24.8318C5.64855 25.3398 5.64855 25.8477 5.64855 26.371C5.56202 26.371 5.47548 26.371 5.38632 26.371C5.38632 25.8631 5.38632 25.3552 5.38632 24.8318C5.2283 24.8318 5.07028 24.8318 4.90747 24.8318C4.90747 24.7528 4.90747 24.6738 4.90747 24.5924Z" fill="black"/>
<path d="M3.5964 27.8989C3.68294 27.8989 3.76947 27.8989 3.85863 27.8989C3.85915 28.0512 3.85956 28.2034 3.85981 28.3556C3.85993 28.4263 3.86009 28.497 3.86035 28.5677C3.8606 28.636 3.86073 28.7043 3.86079 28.7727C3.86083 28.7986 3.86092 28.8246 3.86104 28.8506C3.86217 29.0984 3.85012 29.3407 3.67336 29.5346C3.52125 29.6809 3.35632 29.7082 3.1534 29.7046C3.01281 29.6986 2.90904 29.64 2.80971 29.5407C2.80887 29.4576 2.83253 29.3874 2.86672 29.3127C2.90126 29.3292 2.93285 29.3484 2.96506 29.369C3.08007 29.4375 3.19726 29.4563 3.33016 29.4328C3.40677 29.4108 3.45711 29.3658 3.50733 29.3056C3.57678 29.1762 3.5864 29.0446 3.58734 28.9007C3.58745 28.8898 3.58757 28.8789 3.58768 28.8677C3.58804 28.832 3.58832 28.7964 3.58861 28.7607C3.58884 28.7358 3.58908 28.7109 3.58932 28.686C3.58995 28.6208 3.59052 28.5557 3.59107 28.4905C3.59164 28.4238 3.59228 28.3572 3.5929 28.2905C3.59413 28.16 3.59528 28.0295 3.5964 27.8989Z" fill="black"/>
</g>
<defs>
<clipPath id="clip0_440_34">
<rect width="17.4667" height="31" fill="white" transform="translate(0.290039)"/>
</clipPath>
</defs>
</svg>
