<svg width="50" height="100" viewBox="0 0 50 100" fill="none" xmlns="http://www.w3.org/2000/svg">
<g clip-path="url(#clip0_182_1420)">
<g clip-path="url(#clip1_182_1420)">
<path d="M25.1446 15.238C25.3096 15.348 25.3684 15.4713 25.407 15.6605C25.4187 15.7262 25.4301 15.792 25.4413 15.8578C25.7722 17.6281 26.5047 19.3245 27.2334 20.9621C27.2505 21.0008 27.2676 21.0395 27.2853 21.0794C27.6773 21.9649 28.0893 22.8403 28.5122 23.7114C28.5589 23.8079 28.605 23.9048 28.651 24.0017C28.8916 24.5087 29.1408 25.0113 29.3922 25.5131C29.4499 25.6283 29.5074 25.7436 29.565 25.8589C29.7855 26.3004 30.0069 26.7411 30.2386 27.1769C30.3103 27.312 30.3804 27.4478 30.4501 27.5839C30.4667 27.6163 30.4667 27.6163 30.4836 27.6493C30.5058 27.6927 30.528 27.7361 30.5503 27.7795C30.7342 28.1387 30.9208 28.4959 31.1159 28.8492C31.2441 29.0822 31.3668 29.3179 31.4886 29.5544C31.642 29.852 31.7984 30.1475 31.9597 30.4409C32.0824 30.6642 32.2027 30.8887 32.3225 31.1136C32.5028 31.452 32.6875 31.7875 32.8775 32.1206C33.0019 32.3394 33.1207 32.5608 33.237 32.7841C33.3647 33.0288 33.4986 33.2697 33.6335 33.5105C33.688 33.6082 33.7423 33.706 33.7965 33.8039C34.0094 34.1879 34.2233 34.5713 34.4397 34.9533C34.5689 35.1814 34.6973 35.4098 34.8253 35.6386C34.8443 35.6725 34.8633 35.7065 34.883 35.7416C34.9792 35.9135 35.0753 36.0856 35.1711 36.2578C35.3773 36.6277 35.5867 36.9953 35.8011 37.3605C35.9377 37.5937 36.0707 37.8287 36.2021 38.0649C36.3882 38.3991 36.5794 38.7302 36.7729 39.0603C36.8938 39.2667 37.0135 39.4738 37.1329 39.681C37.1533 39.7164 37.1737 39.7518 37.1948 39.7883C37.2974 39.9663 37.3998 40.1444 37.5022 40.3225C37.7317 40.7217 37.964 41.1191 38.1995 41.5148C38.3481 41.7649 38.494 42.0165 38.6386 42.269C38.825 42.5941 39.0176 42.915 39.2131 43.2348C39.3537 43.4649 39.4917 43.6958 39.6214 43.9323C39.7712 44.2025 39.935 44.4648 40.0965 44.7282C40.514 45.41 40.514 45.41 40.4901 45.6425C40.427 45.8827 40.3095 46.0025 40.1259 46.1641C40.0754 46.2101 40.0249 46.256 39.9744 46.302C39.9503 46.3237 39.9261 46.3455 39.9013 46.3679C39.8215 46.4408 39.7452 46.5165 39.6697 46.5938C39.5885 46.6762 39.5061 46.754 39.4181 46.829C39.2944 46.9349 39.1805 47.0489 39.0662 47.1645C38.935 47.2973 38.8024 47.4244 38.66 47.5452C38.568 47.6275 38.4819 47.715 38.3952 47.8028C38.2897 47.9097 38.1845 48.0145 38.0699 48.1117C37.9481 48.2153 37.8365 48.3275 37.7242 48.4411C37.5929 48.5738 37.4604 48.701 37.3179 48.8218C37.226 48.9041 37.1399 48.9916 37.0531 49.0794C36.9476 49.1862 36.8425 49.2911 36.7279 49.3883C36.606 49.4918 36.4944 49.6041 36.3821 49.7177C36.2509 49.8504 36.1183 49.9776 35.9759 50.0983C35.884 50.1806 35.7978 50.2682 35.7111 50.356C35.6056 50.4628 35.5005 50.5677 35.3858 50.6649C35.264 50.7684 35.1524 50.8807 35.0401 50.9942C34.9089 51.127 34.7763 51.2541 34.6339 51.3749C34.5419 51.4572 34.4558 51.5448 34.3691 51.6325C34.2635 51.7394 34.1584 51.8443 34.0438 51.9415C33.922 52.045 33.8104 52.1572 33.6981 52.2708C33.5668 52.4035 33.4343 52.5307 33.2918 52.6515C33.1999 52.7338 33.1137 52.8213 33.027 52.9091C32.9215 53.0159 32.8164 53.1208 32.7018 53.218C32.5799 53.3215 32.4683 53.4338 32.356 53.5474C32.2248 53.6801 32.0922 53.8073 31.9498 53.928C31.8579 54.0104 31.7717 54.0979 31.685 54.1857C31.5795 54.2925 31.4744 54.3974 31.3597 54.4946C31.2379 54.5981 31.1263 54.7104 31.014 54.824C30.8827 54.9567 30.7502 55.0839 30.6078 55.2046C30.4976 55.3032 30.3952 55.4094 30.2913 55.5146C30.183 55.6236 30.0714 55.7258 29.9543 55.8254C29.862 55.9082 29.7754 55.996 29.6883 56.0842C29.5828 56.191 29.4777 56.2959 29.363 56.3931C29.2412 56.4966 29.1296 56.6089 29.0173 56.7225C28.8861 56.8552 28.7535 56.9823 28.6111 57.1031C28.5191 57.1854 28.433 57.273 28.3463 57.3607C28.2407 57.4676 28.1356 57.5725 28.021 57.6697C27.8992 57.7732 27.7876 57.8854 27.6753 57.999C27.5422 58.1334 27.4087 58.2643 27.264 58.3863C27.2173 58.4266 27.1717 58.4684 27.127 58.5109C26.4552 59.145 25.6331 59.3774 24.7278 59.3664C23.9088 59.3421 23.1868 58.9566 22.6073 58.3953C22.5461 58.3365 22.4842 58.2787 22.422 58.221C22.21 58.0239 22.0004 57.8253 21.7972 57.619C21.7373 57.5601 21.6755 57.5052 21.6115 57.4508C21.4879 57.3449 21.374 57.2309 21.2597 57.1153C21.1284 56.9825 20.9959 56.8554 20.8534 56.7346C20.7433 56.636 20.6408 56.5298 20.5369 56.4246C20.4484 56.3354 20.3593 56.2494 20.2634 56.168C20.1213 56.0473 19.9923 55.9142 19.8613 55.7817C19.7487 55.6683 19.6333 55.5614 19.5114 55.458C19.4012 55.3594 19.2987 55.2532 19.1949 55.148C19.1064 55.0588 19.0172 54.9728 18.9213 54.8915C18.7792 54.7707 18.6503 54.6376 18.5193 54.5052C18.4067 54.3918 18.2913 54.2848 18.1694 54.1815C18.0592 54.0829 17.9568 53.9767 17.8529 53.8715C17.7637 53.7816 17.6738 53.6949 17.5772 53.6129C17.462 53.5149 17.3561 53.4094 17.2499 53.3019C17.1444 53.1951 17.0393 53.0902 16.9246 52.993C16.7825 52.8722 16.6536 52.7391 16.5226 52.6067C16.41 52.4933 16.2946 52.3863 16.1727 52.283C16.0625 52.1843 15.96 52.0781 15.8561 51.973C15.7676 51.8838 15.6785 51.7977 15.5826 51.7164C15.4405 51.5957 15.3115 51.4626 15.1805 51.3301C15.0679 51.2167 14.9526 51.1098 14.8306 51.0064C14.7205 50.9078 14.618 50.8016 14.5142 50.6965C14.425 50.6066 14.3351 50.5199 14.2385 50.4378C14.1233 50.3398 14.0174 50.2344 13.9112 50.1268C13.8057 50.02 13.7005 49.9151 13.5859 49.8179C13.4438 49.6972 13.3149 49.5641 13.1839 49.4316C13.0713 49.3182 12.9559 49.2113 12.8339 49.1079C12.7238 49.0093 12.6213 48.9031 12.5174 48.7979C12.4289 48.7087 12.3398 48.6227 12.2439 48.5413C12.1018 48.4206 11.9728 48.2875 11.8418 48.155C11.7292 48.0416 11.6138 47.9347 11.4919 47.8313C11.3818 47.7327 11.2793 47.6265 11.1754 47.5214C11.0863 47.4315 10.9963 47.3448 10.8998 47.2627C10.7845 47.1648 10.6787 47.0593 10.5725 46.9518C10.4669 46.8449 10.3618 46.74 10.2472 46.6429C10.1045 46.5218 9.97462 46.3884 9.84391 46.2547C9.75938 46.1689 9.67433 46.087 9.58114 46.0105C9.42306 45.8799 9.38377 45.7594 9.35547 45.5631C9.37169 45.3306 9.50342 45.1317 9.62321 44.9387C9.65841 44.881 9.69357 44.8233 9.7287 44.7656C9.7482 44.7336 9.7677 44.7017 9.78779 44.6688C9.91377 44.461 10.0373 44.2517 10.1613 44.0427C10.1885 43.9968 10.2157 43.9509 10.2429 43.905C10.3201 43.775 10.3972 43.6449 10.4743 43.5148C10.4942 43.4811 10.5142 43.4475 10.5348 43.4127C10.8074 42.9526 11.078 42.4913 11.3482 42.0298C11.4314 41.8877 11.5148 41.7458 11.5982 41.6038C11.8422 41.1883 12.0849 40.7722 12.3253 40.3546C12.4595 40.1213 12.5949 39.8888 12.7308 39.6565C12.963 39.2592 13.1913 38.8596 13.4191 38.4598C13.5176 38.2871 13.6162 38.1145 13.7149 37.942C13.7476 37.8848 13.7802 37.8276 13.8129 37.7704C13.9113 37.5981 14.0097 37.4259 14.1084 37.2539C14.3574 36.8199 14.6039 36.3846 14.8462 35.9468C14.9753 35.7138 15.1055 35.4815 15.2369 35.2499C15.4556 34.864 15.6709 34.4762 15.8859 34.0883C15.946 33.9799 16.0061 33.8717 16.0663 33.7634C16.0916 33.7178 16.117 33.6722 16.1423 33.6265C16.2217 33.4836 16.3013 33.3407 16.381 33.1979C16.627 32.7567 16.8693 32.3137 17.1081 31.8686C17.2091 31.6804 17.3111 31.4929 17.4136 31.3056C17.6134 30.94 17.8111 30.5733 18.0082 30.2062C18.0692 30.0926 18.1304 29.979 18.1915 29.8655C18.4267 29.428 18.6586 28.989 18.8871 28.548C18.9742 28.3798 19.0621 28.2121 19.1504 28.0446C19.3363 27.6919 19.5212 27.3387 19.7049 26.9849C19.7197 26.9564 19.7197 26.9564 19.7348 26.9273C20.0791 26.2647 20.4161 25.5986 20.7503 24.9309C20.7781 24.8753 20.7781 24.8753 20.8066 24.8185C21.0419 24.3488 21.2729 23.8774 21.498 23.4028C21.5351 23.3247 21.5723 23.2466 21.6097 23.1686C21.947 22.4629 22.2718 21.7525 22.5856 21.0361C22.6181 20.9621 22.6507 20.8881 22.6834 20.8142C23.3981 19.1972 24.1259 17.5119 24.4258 15.7605C24.4592 15.5758 24.4929 15.4442 24.6148 15.2993C24.7912 15.1817 24.9451 15.1675 25.1446 15.238ZM24.9093 17.0342C24.8992 17.0648 24.889 17.0955 24.8786 17.127C24.3554 18.7024 23.7275 20.2356 23.0436 21.7477C23.0245 21.7898 23.0055 21.832 22.9865 21.8742C22.5835 22.7673 22.1711 23.6556 21.7435 24.5371C21.6781 24.6718 21.6132 24.8068 21.5491 24.9422C21.2837 25.5028 21.005 26.0567 20.7267 26.6111C20.5691 26.925 20.4123 27.2392 20.2556 27.5536C20.1887 27.6878 20.1218 27.8219 20.0548 27.9561C20.0207 28.0244 19.9867 28.0928 19.9526 28.1612C19.758 28.5519 19.5608 28.9409 19.3564 29.3265C19.2805 29.4699 19.2061 29.6141 19.1323 29.7586C19.1205 29.7816 19.1088 29.8046 19.0966 29.8283C19.0729 29.8748 19.0491 29.9213 19.0253 29.9679C18.8355 30.3392 18.6434 30.7087 18.4416 31.0737C18.3071 31.3178 18.1792 31.5651 18.0519 31.8129C17.895 32.1181 17.7353 32.4212 17.5696 32.7217C17.4299 32.9759 17.2946 33.2323 17.1595 33.4889C16.9611 33.8658 16.7597 34.24 16.5478 34.6095C16.4278 34.8196 16.315 35.0326 16.2045 35.2478C16.052 35.5444 15.8883 35.8327 15.7186 36.1198C15.5727 36.3674 15.4337 36.618 15.2974 36.871C15.173 37.1012 15.0431 37.3277 14.9087 37.5522C14.7703 37.7866 14.6848 38.002 14.7295 38.2776C14.845 38.5827 15.0687 38.748 15.3563 38.8822C16.1514 39.207 16.9288 38.9864 17.7327 38.8034C17.7674 38.7955 17.802 38.7877 17.8377 38.7796C19.1586 38.4796 20.4589 38.1225 21.7572 37.7381C23.1578 37.3233 23.1578 37.3233 23.778 37.179C23.8036 37.173 23.8292 37.167 23.8556 37.1608C28.342 36.1118 28.342 36.1118 29.8347 36.9153C30.0592 37.0593 30.1809 37.2679 30.2448 37.5248C30.2972 37.951 30.1582 38.353 29.9174 38.7032C29.7556 38.9001 29.5744 39.0802 29.3937 39.2596C29.5318 39.2411 29.6675 39.2183 29.8042 39.1907C30.8496 38.9864 32.0025 39.1003 32.9247 39.6647C33.6817 40.1796 34.1482 40.8755 34.3246 41.775C34.4976 42.81 34.3183 43.9226 33.712 44.7904C33.6498 44.8696 33.5849 44.9452 33.518 45.0205C33.4995 45.0441 33.481 45.0676 33.4619 45.0919C33.1103 45.5242 32.4327 46.0217 31.8722 46.1129C31.7281 46.1172 31.6713 46.1158 31.5541 46.023C31.4356 45.8675 31.4355 45.7357 31.4559 45.5443C31.5228 45.4105 31.6179 45.3614 31.7443 45.2906C32.0548 45.1112 32.2233 44.802 32.3267 44.465C32.3698 44.2439 32.3728 44.0353 32.2599 43.836C31.8873 43.2941 31.306 42.9589 30.6887 42.7702C30.6571 42.7604 30.6571 42.7604 30.6249 42.7504C30.2514 42.6434 29.8664 42.6182 29.4796 42.6188C29.4473 42.6188 29.4473 42.6188 29.4143 42.6189C26.5836 42.6311 23.4144 43.8449 20.3268 46.1007C20.3098 46.1148 20.2929 46.129 20.2754 46.1435C19.805 46.5364 19.3655 46.9611 18.9316 47.3937C18.9013 47.4238 18.871 47.4539 18.8399 47.4849C18.6919 47.6332 18.5483 47.7832 18.4118 47.9422C18.3442 48.0209 18.2737 48.0969 18.2032 48.1731C18.0422 48.3499 17.891 48.5332 17.7409 48.7193C17.7079 48.7596 17.6748 48.7998 17.6417 48.84C17.1795 49.4026 16.7529 49.9898 16.3457 50.5933C16.3321 50.6132 16.3186 50.6331 16.3046 50.6536C16.2347 50.7582 16.1786 50.859 16.137 50.9779C16.1595 50.9968 16.1595 50.9968 16.1825 51.0161C16.4085 51.2097 16.6144 51.4217 16.8221 51.6344C16.864 51.6768 16.864 51.6768 16.9067 51.7201C16.9318 51.7457 16.9569 51.7714 16.9827 51.7978C17.0482 51.8568 17.1038 51.8929 17.1844 51.9271C17.2026 51.8895 17.2026 51.8895 17.2212 51.851C17.9647 50.319 18.8918 48.9048 20.0522 47.6557C20.0989 47.605 20.1451 47.5539 20.1911 47.5026C20.3399 47.3373 20.4893 47.1789 20.6601 47.0358C20.7195 46.9845 20.7736 46.9305 20.828 46.874C20.9475 46.7526 21.0779 46.6472 21.2107 46.5406C21.2938 46.473 21.375 46.4037 21.4558 46.3334C23.4755 44.5859 26.1175 43.6149 28.7432 43.3041C28.7686 43.301 28.7941 43.2978 28.8203 43.2946C29.3332 43.2321 29.3332 43.2321 29.5901 43.3185C29.6858 43.3962 29.6894 43.4543 29.7169 43.5762C29.728 43.7151 29.7107 43.7947 29.6228 43.9076C29.461 44.02 29.2693 44.0818 29.0868 44.1527C27.684 44.6998 26.361 45.4901 25.2367 46.4935C25.2091 46.5179 25.1815 46.5422 25.153 46.5673C25.0711 46.6402 24.9901 46.714 24.9093 46.7881C24.8806 46.8143 24.8806 46.8143 24.8514 46.8411C24.5345 47.1278 24.5345 47.1278 24.2455 47.4417C24.187 47.5109 24.1256 47.5768 24.0637 47.6428C23.8674 47.8527 23.6891 48.0734 23.514 48.3011C23.4403 48.3966 23.3657 48.4915 23.2911 48.5864C23.2762 48.6054 23.2614 48.6245 23.246 48.6441C23.1711 48.7398 23.0953 48.8345 23.0175 48.9279C21.9718 50.1893 21.2142 51.6992 21.0142 53.3346C21.0111 53.3586 21.008 53.3826 21.0048 53.4073C20.9114 54.2146 20.8748 55.2944 21.3619 55.9942C21.55 56.2173 21.7647 56.4243 21.9862 56.6139C22.1788 56.781 22.3552 56.9651 22.5342 57.1466C22.7025 57.3171 22.8718 57.484 23.054 57.6398C23.1278 57.7046 23.1938 57.7756 23.2604 57.8476C23.5719 58.1605 23.9291 58.3517 24.3529 58.4737C24.3946 58.4857 24.3946 58.4857 24.4372 58.4979C24.9857 58.6303 25.5527 58.5135 26.0477 58.2629C26.1256 58.2081 26.1527 58.169 26.1859 58.0809C26.1625 58.0658 26.1391 58.0507 26.115 58.0351C25.7241 57.7792 25.3612 57.5009 25.0234 57.178C24.991 57.1471 24.9585 57.1164 24.9259 57.0859C24.0373 56.2546 23.5235 55.1224 23.3709 53.9238C23.3666 53.8905 23.3623 53.8572 23.3579 53.8228C23.119 51.5176 24.1725 49.0317 25.5802 47.2483C26.4423 46.1953 26.4423 46.1953 26.906 46.068C27.0803 46.071 27.1741 46.1106 27.2988 46.2317C27.3595 46.353 27.3596 46.4624 27.3316 46.5917C27.2775 46.6896 27.2188 46.7801 27.1559 46.8722C26.8942 47.2559 26.6048 47.8465 26.6769 48.3265C26.6821 48.3623 26.6872 48.398 26.6925 48.4348C26.8412 49.2956 27.3002 49.9281 27.888 50.5524C27.9099 50.576 27.9317 50.5996 27.9542 50.624C28.7666 51.474 29.9248 51.8793 31.0829 51.906C31.9035 51.9115 32.8559 51.7882 33.4687 51.1884C33.5449 51.1145 33.6229 51.044 33.7024 50.9738C33.8837 50.8113 34.055 50.6398 34.2259 50.4664C34.5494 50.1382 34.5494 50.1382 34.6961 50.0125C34.8636 49.8691 35.0163 49.711 35.171 49.554C35.3459 49.3766 35.5206 49.2027 35.7099 49.0406C35.8474 48.9181 35.9747 48.785 36.1039 48.6539C36.4144 48.3387 36.4144 48.3387 36.5611 48.213C36.7288 48.0692 36.8818 47.9109 37.0368 47.7537C37.2114 47.5766 37.3857 47.4031 37.5746 47.2413C37.7181 47.1133 37.8511 46.9741 37.986 46.8372C38.3139 46.5046 38.3139 46.5046 38.46 46.3796C38.6481 46.2186 38.8186 46.0392 38.9923 45.863C39.0375 45.8172 39.0829 45.7714 39.1282 45.7257C39.1548 45.6987 39.1815 45.6717 39.2089 45.6439C39.279 45.577 39.279 45.577 39.3772 45.5115C39.3578 45.3806 39.3168 45.2872 39.2499 45.1733C39.2303 45.1395 39.2106 45.1057 39.1903 45.0709C39.1689 45.0347 39.1476 44.9985 39.1255 44.9612C39.1032 44.923 39.0808 44.8847 39.0585 44.8464C39.0013 44.7485 38.9439 44.6506 38.8864 44.5528C38.7994 44.4048 38.7129 44.2564 38.6264 44.1081C38.5984 44.0603 38.5984 44.0603 38.5699 44.0116C38.3681 43.6659 38.1698 43.3182 37.9716 42.9704C37.8939 42.834 37.816 42.6978 37.738 42.5616C37.5077 42.1597 37.2792 41.757 37.0534 41.3526C36.9345 41.1397 36.8144 40.9277 36.6931 40.7162C36.5306 40.4328 36.3706 40.1481 36.2112 39.863C36.0841 39.6355 35.9562 39.4085 35.8277 39.1819C35.611 38.7991 35.3975 38.4146 35.1842 38.0299C35.1229 37.9193 35.0615 37.8089 35.0001 37.6984C34.6012 36.9813 34.2025 36.2643 33.8152 35.5408C33.6914 35.3103 33.564 35.0822 33.4341 34.855C33.2669 34.5621 33.1093 34.265 32.9549 33.9651C32.8426 33.7473 32.7277 33.5313 32.6097 33.3166C32.4235 32.9777 32.242 32.6365 32.061 32.2948C31.9297 32.0471 31.7977 31.7998 31.6647 31.553C31.4168 31.0929 31.1768 30.629 30.9385 30.1639C30.9264 30.1403 30.9143 30.1166 30.9018 30.0923C30.884 30.0575 30.884 30.0575 30.8659 30.0221C30.78 29.8547 30.6929 29.6879 30.6048 29.5216C30.1118 28.5905 29.6408 27.6479 29.17 26.7054C29.0849 26.5349 28.9996 26.3646 28.9143 26.1942C28.8471 26.0598 28.7799 25.9254 28.7127 25.7909C28.6813 25.7281 28.6499 25.6654 28.6185 25.6026C28.3916 25.1493 28.171 24.6932 27.9535 24.2353C27.9281 24.182 27.9027 24.1286 27.8773 24.0753C27.5576 23.4039 27.2438 22.7298 26.9395 22.0513C26.9046 21.9736 26.8697 21.8961 26.8347 21.8185C26.2681 20.5596 25.7244 19.2875 25.2694 17.9834C25.2619 17.962 25.2544 17.9406 25.2467 17.9185C25.144 17.6241 25.0425 17.3293 24.9421 17.0342C24.9313 17.0342 24.9205 17.0342 24.9093 17.0342ZM26.3496 37.492C26.3003 37.4991 26.251 37.5062 26.2017 37.5133C24.7463 37.7247 23.3428 38.0916 21.936 38.5146C20.3447 38.9925 18.7396 39.4001 17.1149 39.7465C17.0798 39.754 17.0447 39.7615 17.0086 39.7693C15.5347 40.084 15.5347 40.084 14.8011 40.0861C14.7432 40.0863 14.7432 40.0863 14.6841 40.0865C14.4124 40.0847 14.1514 40.0618 13.8844 40.0118C13.6992 39.9769 13.6992 39.9769 13.5184 40.0125C13.4542 40.091 13.4542 40.091 13.4031 40.1929C13.3826 40.2303 13.3621 40.2677 13.341 40.3063C13.3196 40.3468 13.2983 40.3873 13.277 40.4278C13.255 40.4688 13.2329 40.5098 13.2108 40.5507C13.168 40.6306 13.1254 40.7106 13.0832 40.7908C13.0394 40.8735 12.9948 40.9556 12.949 41.0373C12.5904 41.7007 12.5127 42.5619 12.7001 43.2857C12.8322 43.6999 13.0779 44.0963 13.4671 44.3118C14.0613 44.584 14.7866 44.4247 15.3771 44.2142C16.4705 43.8055 17.4028 43.1315 18.3212 42.4262C18.4759 42.3076 18.6319 42.1909 18.7883 42.0746C18.811 42.0577 18.8337 42.0407 18.8571 42.0233C19.353 41.6528 19.8558 41.3039 20.3922 40.9944C20.4111 40.9834 20.43 40.9723 20.4494 40.961C20.8264 40.7419 21.2273 40.5874 21.6361 40.438C21.6659 40.427 21.6958 40.4161 21.7265 40.4048C22.37 40.1717 23.0085 40.0379 23.6941 40.0411C23.746 40.0413 23.746 40.0413 23.7988 40.0415C24.5119 40.0466 24.5119 40.0466 24.6802 40.1761C24.7688 40.3219 24.7962 40.4406 24.7667 40.6061C24.7304 40.7117 24.6697 40.765 24.582 40.8308C24.4482 40.87 24.3292 40.8611 24.1913 40.8492C23.4446 40.7924 22.8058 40.9055 22.0943 41.1254C22.0653 41.1342 22.0363 41.143 22.0064 41.1521C21.2792 41.3766 20.6231 41.7412 19.9995 42.1728C19.9792 42.1867 19.9589 42.2006 19.938 42.2149C19.6578 42.4076 19.3888 42.6152 19.1188 42.8219C18.8506 43.027 18.5795 43.2282 18.3067 43.4273C18.233 43.4813 18.1596 43.5358 18.0863 43.5903C17.0677 44.3432 15.9772 44.9328 14.7295 45.1842C14.7061 45.189 14.6827 45.1938 14.6586 45.1988C13.99 45.3288 13.1989 45.3022 12.5364 45.1515C12.4985 45.143 12.4985 45.143 12.4599 45.1344C11.94 45.0124 11.4711 44.77 10.998 44.5296C10.8742 44.6886 10.7774 44.8627 10.6768 45.0369C10.6564 45.0711 10.636 45.1054 10.615 45.1406C10.596 45.1736 10.577 45.2065 10.5575 45.2405C10.5312 45.2855 10.5312 45.2855 10.5043 45.3314C10.4654 45.4113 10.4654 45.4113 10.4979 45.485C11.006 46.2056 12.0145 46.5352 12.8407 46.6829C13.1417 46.7334 13.4421 46.778 13.7475 46.7881C13.7755 46.7894 13.8034 46.7907 13.8322 46.7921C14.824 46.8174 15.7096 46.4871 16.4971 45.9043C16.5282 45.8813 16.5282 45.8813 16.56 45.8578C16.6827 45.7665 16.803 45.6724 16.9226 45.577C16.9676 45.5414 16.9676 45.5414 17.0136 45.5051C17.2557 45.3111 17.4819 45.1016 17.7082 44.8896C18.1464 44.4797 18.595 44.0914 19.0763 43.7324C19.1241 43.6966 19.1719 43.6607 19.2195 43.6246C20.1051 42.9545 21.1881 42.3047 22.3276 42.2935C22.3599 42.2926 22.3923 42.2916 22.4256 42.2906C22.6625 42.2885 22.6625 42.2885 22.7692 42.3658C22.872 42.5223 22.8713 42.6765 22.8472 42.8602C22.7645 42.9719 22.7163 43.0129 22.5853 43.0566C22.509 43.06 22.4326 43.0626 22.3562 43.0648C21.2984 43.119 20.3601 43.7456 19.5412 44.3659C19.5207 44.3814 19.5002 44.3969 19.4791 44.4128C18.9921 44.7829 18.5393 45.1934 18.0929 45.6109C17.8732 45.816 17.6501 46.0131 17.4136 46.1989C17.3932 46.215 17.3727 46.2311 17.3517 46.2476C16.1359 47.2013 14.7946 47.8923 13.2565 48.1301C13.3055 48.2487 13.3723 48.3129 13.469 48.3958C13.6474 48.5524 13.8143 48.7181 13.9807 48.8871C14.2 49.1109 14.2 49.1109 14.4316 49.3217C14.6113 49.4758 14.7757 49.6458 14.9423 49.8138C14.9758 49.8475 15.0093 49.8811 15.0428 49.9148C15.1239 49.9963 15.205 50.0779 15.286 50.1596C15.3608 50.067 15.4339 49.9744 15.5018 49.8766C15.5247 49.8438 15.5247 49.8438 15.5481 49.8103C15.5642 49.7872 15.5803 49.764 15.5969 49.7402C15.9725 49.2048 16.3673 48.682 16.7925 48.1849C16.8838 48.0783 16.9723 47.97 17.0597 47.8601C17.425 47.4142 17.8416 47.0116 18.2483 46.604C18.2697 46.5824 18.2912 46.5609 18.3133 46.5387C18.5312 46.3201 18.7482 46.103 18.9847 45.9043C19.0202 45.8733 19.0556 45.8422 19.091 45.811C19.8801 45.1223 20.7541 44.5463 21.6688 44.0386C21.6974 44.0227 21.7259 44.0068 21.7554 43.9904C23.5822 42.9839 25.6996 42.3115 27.7571 41.9764C27.7901 41.971 27.7901 41.971 27.8238 41.9654C28.3785 41.8752 28.9279 41.8335 29.4899 41.8312C29.5153 41.831 29.5407 41.8307 29.5669 41.8305C30.0514 41.8281 30.5308 41.8856 30.9956 42.0276C31.0358 42.0398 31.0358 42.0398 31.0768 42.0523C31.8592 42.3055 32.5909 42.8238 32.9708 43.5638C33.053 43.7474 33.0776 43.9179 33.0867 44.1182C33.0892 44.2061 33.0892 44.2061 33.1252 44.3004C33.5094 43.7977 33.6348 43.1874 33.6308 42.5663C33.6305 42.5001 33.6315 42.4341 33.6325 42.3679C33.6357 41.7795 33.4512 41.2428 33.0598 40.798C33.03 40.7642 33.03 40.7642 32.9997 40.7298C32.5389 40.2389 31.7973 39.9487 31.1307 39.9085C30.1124 39.8882 29.2802 40.0612 28.4404 40.6569C28.2443 40.7959 28.0582 40.9025 27.8225 40.9617C27.7991 40.9679 27.7757 40.974 27.7516 40.9804C27.3858 41.0359 26.956 41.0379 26.6114 40.8962C26.5749 40.8814 26.5749 40.8814 26.5377 40.8663C26.3929 40.8007 26.2918 40.7222 26.1859 40.6016C26.1636 40.578 26.1414 40.5544 26.1184 40.53C25.9223 40.2454 25.8839 39.9614 25.9241 39.6197C26.0022 39.311 26.1592 39.0833 26.43 38.915C26.6847 38.7801 26.9329 38.723 27.219 38.7236C27.2445 38.7237 27.2699 38.7237 27.2961 38.7238C27.6032 38.7302 27.8991 38.7958 28.1703 38.9446C28.2732 39.0092 28.2732 39.0092 28.3579 38.9756C28.8049 38.7518 29.3147 38.3672 29.5051 37.8883C29.5342 37.7858 29.5311 37.722 29.4919 37.623C29.166 37.311 28.6111 37.3394 28.1887 37.3447C28.1605 37.3449 28.1322 37.3451 28.1031 37.3453C27.5121 37.3497 26.9338 37.4064 26.3496 37.492ZM26.726 39.679C26.6715 39.7949 26.6528 39.8539 26.6769 39.9797C26.8 40.1562 26.9653 40.203 27.1679 40.2416C27.4564 40.2799 27.7731 40.2128 28.0132 40.0467C28.0918 39.9834 28.0918 39.9834 28.1171 39.8815C27.9904 39.6666 27.7743 39.598 27.5464 39.5296C27.2531 39.4559 26.9419 39.4361 26.726 39.679ZM22.4544 46.559C22.4339 46.5745 22.4134 46.5901 22.3922 46.6061C21.6512 47.171 20.9269 47.8086 20.3268 48.5229C20.2975 48.5564 20.2681 48.5898 20.2387 48.6232C19.3641 49.6201 18.5846 50.8929 18.5265 52.2545C18.5252 52.2775 18.5239 52.3006 18.5225 52.3244C18.5091 52.7632 18.603 53.2851 18.8895 53.6301C19.0006 53.7449 19.1191 53.8514 19.2382 53.9577C19.4117 54.1137 19.574 54.2813 19.7376 54.4475C19.8134 54.3338 19.8373 54.2257 19.8672 54.0948C19.8799 54.0415 19.8925 53.9883 19.9052 53.935C19.9119 53.9069 19.9185 53.8787 19.9254 53.8497C20.3763 51.958 21.1225 50.0789 22.3435 48.5475C22.4176 48.454 22.4905 48.3597 22.5637 48.2654C22.6394 48.1678 22.7153 48.0704 22.7913 47.9729C22.8296 47.9236 22.8679 47.8743 22.9061 47.8249C23.2811 47.3401 23.6915 46.8906 24.123 46.4558C24.1557 46.4229 24.1883 46.3899 24.2209 46.3568C24.439 46.1359 24.6665 45.9339 24.9093 45.7407C24.943 45.7124 24.9765 45.684 25.0097 45.6553C25.3923 45.3272 25.8062 45.0375 26.229 44.7639C26.3217 44.7035 26.4067 44.6453 26.4805 44.5623C25.1929 44.5623 23.4124 45.8307 22.4544 46.559ZM25.8259 48.2283C25.2443 49.0511 24.7848 49.9844 24.4838 50.9452C24.4751 50.9729 24.4664 51.0006 24.4574 51.0291C24.1667 51.9653 23.9018 53.1341 24.2547 54.0875C24.2665 54.1216 24.2784 54.1557 24.2906 54.1908C24.5882 54.9735 25.2016 55.6091 25.9584 55.9586C26.149 56.0403 26.3454 56.0979 26.546 56.1496C26.5769 56.1577 26.6079 56.1658 26.6398 56.1741C27.2209 56.2962 27.8823 56.2697 28.3995 55.9655C28.4697 55.9187 28.5392 55.871 28.6081 55.8223C28.6405 55.8003 28.6729 55.7783 28.7062 55.7556C29.0131 55.5343 29.2707 55.2644 29.5345 54.9944C29.6465 54.8804 29.7621 54.7742 29.8834 54.6703C30.0151 54.5537 30.1374 54.4273 30.2611 54.3023C30.3015 54.2617 30.3015 54.2617 30.3427 54.2203C30.4083 54.1543 30.4739 54.0882 30.5394 54.022C30.4928 53.9128 30.4928 53.9128 30.3917 53.8517C30.3574 53.8404 30.3231 53.8291 30.2877 53.8174C29.4139 53.5 28.6072 52.8896 27.9463 52.2458C27.8897 52.1906 27.8326 52.136 27.7754 52.0815C27.5259 51.8407 27.3077 51.5844 27.1024 51.3052C27.0769 51.2705 27.0513 51.2358 27.0249 51.2001C26.3908 50.3114 25.9896 49.312 25.8586 48.2283C25.8478 48.2283 25.837 48.2283 25.8259 48.2283Z" fill="white"/>
<path d="M25.1057 8.00003C25.2669 8.08491 25.3399 8.19141 25.4003 8.36009C25.4129 8.42041 25.4238 8.48113 25.4333 8.54204C25.4391 8.57778 25.4449 8.61351 25.4508 8.65033C25.4571 8.6889 25.4634 8.72747 25.4698 8.7672C25.9586 11.6056 27.299 14.3481 28.9681 17.9835C28.9794 18.0078 28.9907 18.0321 29.0024 18.0571C29.2773 18.6471 29.557 19.2345 29.8426 19.8194C29.8531 19.8409 29.8635 19.8624 29.8743 19.8845C29.8963 19.9296 29.9184 19.9747 29.9404 20.0198C30.0024 20.1468 30.0637 20.2742 30.1242 20.4019C30.452 21.0924 30.7959 21.775 31.138 22.4584C31.2291 22.6405 31.3201 22.8226 31.4111 23.0047C31.4823 23.1472 31.5535 23.2896 31.6248 23.4321C31.6583 23.4991 31.6918 23.5662 31.7254 23.6333C31.9253 24.0336 32.1293 24.4312 32.3388 24.8266C32.4081 24.9579 32.4757 25.0902 32.5431 25.2225C32.5572 25.2499 32.5712 25.2774 32.5856 25.3056C32.6436 25.4191 32.7014 25.5325 32.7593 25.646C32.942 26.0039 33.1266 26.3607 33.3142 26.716C33.3886 26.8569 33.4621 26.9982 33.5355 27.1397C33.6772 27.4131 33.8216 27.6848 33.9701 27.9547C34.1241 28.2346 34.272 28.5174 34.4181 28.8016C34.5757 29.1082 34.7363 29.4129 34.9026 29.7149C35.0493 29.9819 35.1921 30.2509 35.3346 30.5201C35.5085 30.8483 35.6835 31.1757 35.8621 31.5014C35.9673 31.6932 36.0711 31.8856 36.1744 32.0785C36.3581 32.4214 36.5457 32.7617 36.7384 33.0997C36.8611 33.3157 36.978 33.5341 37.0924 33.7545C37.2145 33.9885 37.3447 34.2175 37.4754 34.4467C37.611 34.6853 37.742 34.9261 37.8714 35.1681C38.0309 35.4662 38.1941 35.7617 38.3613 36.0555C38.5049 36.3082 38.6458 36.5624 38.7859 36.817C39.006 37.217 39.2283 37.6158 39.4518 38.0139C39.547 38.1836 39.6421 38.3534 39.7372 38.5232C39.756 38.5569 39.7749 38.5905 39.7943 38.6252C39.8907 38.7973 39.987 38.9694 40.0831 39.1415C40.3079 39.5437 40.5345 39.9447 40.7637 40.3444C40.8552 40.5041 40.9464 40.6639 41.0377 40.8237C41.0935 40.9214 41.1493 41.0191 41.2051 41.1168C41.2163 41.1363 41.2275 41.1559 41.2391 41.1761C41.3068 41.2946 41.3746 41.4132 41.4424 41.5317C41.4979 41.6288 41.5535 41.7259 41.6091 41.8231C41.6254 41.8517 41.6254 41.8517 41.6422 41.8809C41.7896 42.1387 41.9359 42.397 42.0816 42.6557C42.2419 42.9401 42.4055 43.2224 42.5705 43.5041C42.7188 43.7577 42.865 44.0125 43.0104 44.2678C43.2136 44.6243 43.419 44.9795 43.6263 45.3336C43.6431 45.3624 43.6599 45.3911 43.6772 45.4207C43.7158 45.4865 43.7546 45.5522 43.7934 45.6179C43.8141 45.653 43.8349 45.6882 43.8562 45.7244C43.8752 45.7564 43.8942 45.7885 43.9138 45.8216C44.0041 45.9846 44.0234 46.1474 43.9758 46.3271C43.8602 46.5999 43.6005 46.8017 43.3802 46.9906C43.2103 47.1383 43.0538 47.299 42.8959 47.4592C42.7213 47.6363 42.5469 47.8098 42.358 47.9716C42.2145 48.0996 42.0815 48.2388 41.9466 48.3757C41.772 48.5528 41.5977 48.7263 41.4088 48.8881C41.2653 49.0162 41.1323 49.1554 40.9974 49.2922C40.8228 49.4693 40.6484 49.6429 40.4595 49.8046C40.316 49.9327 40.1831 50.0719 40.0481 50.2088C39.7202 50.5413 39.7202 50.5413 39.5745 50.666C39.401 50.8146 39.2428 50.9791 39.0825 51.1416C38.9025 51.3242 38.7226 51.5042 38.5277 51.671C38.3844 51.7987 38.2516 51.9378 38.1169 52.0745C37.9423 52.2516 37.7679 52.4251 37.579 52.5869C37.4356 52.7149 37.3026 52.8541 37.1676 52.991C36.993 53.1681 36.8187 53.3416 36.6298 53.5034C36.4863 53.6315 36.3533 53.7707 36.2184 53.9075C36.0438 54.0846 35.8695 54.2582 35.6805 54.4199C35.5371 54.548 35.4041 54.6872 35.2692 54.8241C35.0946 55.0012 34.9202 55.1747 34.7313 55.3365C34.5878 55.4645 34.4548 55.6037 34.3199 55.7406C34.1453 55.9177 33.971 56.0912 33.7821 56.253C33.6386 56.381 33.5056 56.5202 33.3707 56.6571C33.1961 56.8342 33.0217 57.0077 32.8328 57.1695C32.6893 57.2975 32.5564 57.4367 32.4214 57.5736C32.0935 57.9062 32.0935 57.9062 31.9478 58.0308C31.7743 58.1795 31.6161 58.3439 31.4558 58.5065C31.2762 58.6887 31.0967 58.8687 30.9023 59.0354C30.4507 59.4332 30.0295 59.8678 29.6989 60.3718C29.6573 60.435 29.6145 60.4971 29.5711 60.559C29.239 61.0377 28.9557 61.5516 28.704 62.0766C28.6731 62.1407 28.6415 62.2044 28.6097 62.2682C27.9985 63.5116 27.6355 64.8976 27.4297 66.2641C27.4235 66.3042 27.4173 66.3444 27.4109 66.3857C27.2984 67.1714 27.2408 67.9612 27.2149 68.7538C27.2141 68.7759 27.2134 68.7981 27.2127 68.8208C27.1972 69.2972 27.1984 69.7721 27.2127 70.2484C27.2149 70.3228 27.217 70.3972 27.219 70.4717C27.2254 70.6987 27.2332 70.9253 27.2474 71.152C27.2505 71.2054 27.2505 71.2054 27.2537 71.2598C27.2577 71.3244 27.2623 71.389 27.2676 71.4536C27.279 71.6431 27.2647 71.8111 27.1351 71.9596C26.95 72.0835 26.7705 72.0717 26.5559 72.0705C26.5176 72.0707 26.4793 72.0708 26.4398 72.071C26.3132 72.0714 26.1866 72.0712 26.06 72.0708C25.972 72.0708 25.8839 72.071 25.7959 72.0711C25.6114 72.0713 25.427 72.071 25.2425 72.0706C25.0295 72.07 24.8166 72.0702 24.6036 72.0708C24.4204 72.0712 24.2373 72.0713 24.0541 72.071C23.9448 72.0709 23.8356 72.0709 23.7263 72.0712C23.6045 72.0714 23.4826 72.071 23.3608 72.0705C23.3248 72.0707 23.2888 72.0709 23.2517 72.0711C23.0707 72.0696 22.937 72.0636 22.7817 71.9596C22.6508 71.8212 22.6553 71.6844 22.6507 71.5013C22.6539 71.4415 22.6572 71.3817 22.6613 71.3219C22.6939 70.8424 22.6896 70.3617 22.6895 69.8813C22.6895 69.7782 22.6897 69.6751 22.6902 69.572C22.6939 68.6977 22.6678 67.8285 22.5607 66.9597C22.5566 66.9261 22.5566 66.9261 22.5525 66.8919C22.335 65.1147 21.9104 63.3715 21.0786 61.776C21.0468 61.7143 21.0163 61.652 20.9858 61.5896C20.8315 61.279 20.6476 60.9899 20.4556 60.7016C20.4369 60.6734 20.4369 60.6734 20.4178 60.6446C20.1931 60.307 19.9626 59.9892 19.6598 59.7176C19.4314 59.5084 19.2114 59.2921 18.9942 59.0712C18.8863 58.9621 18.778 58.8559 18.6614 58.7561C18.461 58.5836 18.2791 58.3915 18.0936 58.2033C17.9685 58.0771 17.8442 57.952 17.7091 57.8365C17.5187 57.6734 17.346 57.4915 17.1701 57.3131C17.0056 57.1465 16.8403 56.9837 16.6623 56.8315C16.4875 56.6757 16.3267 56.5042 16.1624 56.3376C16.0369 56.211 15.9123 56.0856 15.7769 55.9697C15.5775 55.7989 15.3973 55.6078 15.2131 55.421C15.0877 55.2945 14.963 55.1691 14.8276 55.0532C14.6282 54.8824 14.448 54.6913 14.2639 54.5045C14.1385 54.378 14.0138 54.2526 13.8784 54.1367C13.679 53.9659 13.4988 53.7748 13.3146 53.588C13.1892 53.4615 13.0645 53.3361 12.9291 53.2202C12.7298 53.0494 12.5496 52.8583 12.3654 52.6715C12.2403 52.5453 12.116 52.4202 11.9809 52.3047C11.7905 52.1416 11.6178 51.9597 11.4419 51.7813C11.2774 51.6147 11.1121 51.4519 10.9341 51.2997C10.7593 51.1439 10.5985 50.9724 10.4342 50.8057C10.3087 50.6792 10.184 50.5538 10.0487 50.4379C9.84928 50.2671 9.66909 50.076 9.48493 49.8892C9.35949 49.7627 9.2348 49.6373 9.09942 49.5214C8.90004 49.3506 8.71984 49.1595 8.53568 48.9727C8.41024 48.8462 8.28556 48.7208 8.15018 48.6049C7.95079 48.4341 7.77059 48.243 7.58644 48.0562C7.461 47.9297 7.33631 47.8043 7.20093 47.6883C7.00155 47.5176 6.82135 47.3265 6.63719 47.1397C6.48824 46.9894 6.33858 46.8433 6.17674 46.7069C5.9937 46.5446 5.87696 46.3932 5.84253 46.1479C5.8543 45.7959 6.15759 45.4314 6.33425 45.1348C6.4234 44.9847 6.51145 44.8339 6.59947 44.6831C6.61869 44.6502 6.63791 44.6172 6.65771 44.5833C6.81878 44.3068 6.97764 44.0291 7.13602 43.7511C7.28828 43.4839 7.4422 43.2176 7.59782 42.9523C7.77223 42.6548 7.94166 42.3548 8.10935 42.0534C8.23949 41.8201 8.37282 41.589 8.50819 41.3587C8.71474 41.007 8.91322 40.6511 9.11055 40.2942C9.22166 40.0933 9.33408 39.8932 9.44721 39.6934C9.46453 39.6628 9.48186 39.6322 9.49971 39.6007C9.53443 39.5394 9.56915 39.4781 9.60389 39.4169C9.89816 38.8978 10.1907 38.3778 10.482 37.857C10.539 37.7552 10.5961 37.6533 10.6532 37.5515C11.0762 36.797 11.4957 36.0406 11.9131 35.283C11.991 35.1417 12.0691 35.0005 12.1471 34.8593C12.3713 34.4539 12.5942 34.0478 12.8143 33.6401C12.9161 33.4518 13.019 33.2642 13.1235 33.0773C13.2765 32.8034 13.4251 32.5272 13.5736 32.2508C13.6962 32.0226 13.8195 31.7948 13.9439 31.5675C14.1445 31.2005 14.3427 30.8322 14.5407 30.4638C14.5966 30.3599 14.6527 30.2561 14.7087 30.1523C14.9499 29.7059 15.1882 29.258 15.4252 28.8093C15.5599 28.5544 15.6954 28.3001 15.8321 28.0464C16.0792 27.5879 16.3183 27.1257 16.5558 26.6622C16.5679 26.6386 16.5799 26.6151 16.5924 26.5908C16.6042 26.5676 16.6161 26.5445 16.6283 26.5207C16.7164 26.3489 16.8056 26.1777 16.8959 26.0071C17.0678 25.6823 17.2365 25.3559 17.405 25.0294C17.4723 24.8989 17.5396 24.7684 17.6071 24.6381C18.0362 23.8098 18.4547 22.9764 18.8715 22.142C18.9646 21.9557 19.0578 21.7694 19.151 21.5832C19.2243 21.4367 19.2975 21.2901 19.3708 21.1436C19.4051 21.0749 19.4394 21.0063 19.4738 20.9377C19.696 20.4937 19.9132 20.0476 20.1263 19.5992C20.1759 19.495 20.226 19.3911 20.2763 19.2873C20.5075 18.81 20.7335 18.3305 20.9554 17.8488C20.996 17.7608 21.0367 17.6728 21.0775 17.5849C21.449 16.784 21.8091 15.9786 22.1597 15.1685C22.1776 15.1271 22.1776 15.1271 22.1959 15.0849C23.6241 11.8767 23.6241 11.8767 24.435 8.47805C24.4633 8.28368 24.5339 8.165 24.6802 8.03277C24.8111 7.96728 24.9636 7.9793 25.1057 8.00003ZM24.9093 10.6186C24.8993 10.649 24.8893 10.6794 24.8789 10.7107C24.7593 11.0732 24.6384 11.4353 24.5165 11.797C24.5091 11.8191 24.5016 11.8412 24.494 11.864C23.7368 14.1141 22.7377 16.2927 21.7342 18.4417C21.7228 18.4662 21.7113 18.4907 21.6996 18.516C21.424 19.1062 21.1445 19.6943 20.8604 20.2804C20.7732 20.4603 20.6868 20.6406 20.6006 20.821C20.4411 21.1549 20.278 21.4867 20.1116 21.8172C20.0006 22.0383 19.8927 22.2607 19.7866 22.4842C19.5424 22.9979 19.2894 23.5068 19.022 24.0087C18.8794 24.2783 18.7442 24.5516 18.6082 24.8246C18.4533 25.1358 18.2981 25.4465 18.1345 25.7533C17.9981 26.0098 17.866 26.2684 17.7335 26.527C17.4528 27.0749 17.169 27.6209 16.8778 28.1634C16.8673 28.1829 16.8568 28.2024 16.846 28.2225C16.8248 28.2621 16.8035 28.3016 16.7823 28.3412C16.6338 28.6176 16.4877 28.8952 16.3436 29.174C16.2004 29.4508 16.0537 29.7253 15.9036 29.9983C15.7492 30.2798 15.5994 30.5635 15.4496 30.8474C15.2699 31.1877 15.0892 31.5274 14.904 31.8647C14.7994 32.0553 14.6962 32.2466 14.5936 32.4383C14.4309 32.742 14.2661 33.0441 14.0952 33.3433C13.9302 33.6324 13.7723 33.9247 13.6165 34.2189C13.4445 34.5438 13.2684 34.8658 13.086 35.1851C12.9536 35.4175 12.8262 35.6524 12.7 35.8882C12.5397 36.1878 12.3758 36.4849 12.2078 36.7802C12.071 37.0208 11.9361 37.2624 11.8019 37.5044C11.5866 37.8926 11.3701 38.28 11.153 38.6672C11.0955 38.7699 11.038 38.8726 10.9805 38.9753C10.6288 39.6042 10.2746 40.2316 9.91675 40.8571C9.76904 41.1152 9.62197 41.3737 9.47585 41.6328C9.13938 42.229 8.80003 42.8235 8.45417 43.4143C8.30831 43.6638 8.16446 43.9144 8.02129 44.1655C7.66451 44.7911 7.30592 45.4156 6.93907 46.0353C7.0131 46.1371 7.09235 46.221 7.18764 46.3023C7.39166 46.4769 7.57631 46.6712 7.76468 46.8622C7.89011 46.9888 8.0148 47.1141 8.15018 47.2301C8.34957 47.4008 8.52976 47.5919 8.71392 47.7787C8.83936 47.9053 8.96405 48.0307 9.09942 48.1466C9.29881 48.3174 9.47901 48.5085 9.66317 48.6953C9.78861 48.8218 9.91329 48.9472 10.0487 49.0631C10.2481 49.2339 10.4283 49.425 10.6124 49.6118C10.7379 49.7383 10.8625 49.8637 10.9979 49.9796C11.1973 50.1504 11.3775 50.3415 11.5617 50.5283C11.6871 50.6548 11.8118 50.7802 11.9472 50.8961C12.1465 51.0669 12.3267 51.258 12.5109 51.4448C12.6363 51.5713 12.761 51.6967 12.8964 51.8126C13.0958 51.9834 13.276 52.1745 13.4602 52.3613C13.5856 52.4878 13.7103 52.6132 13.8457 52.7292C14.045 52.8999 14.2252 53.091 14.4094 53.2778C14.5345 53.404 14.6588 53.5291 14.7939 53.6447C14.9843 53.8077 15.157 53.9896 15.3329 54.168C15.4974 54.3346 15.6627 54.4974 15.8407 54.6496C16.0155 54.8055 16.1763 54.9769 16.3406 55.1436C16.4661 55.2701 16.5907 55.3955 16.7261 55.5114C16.9255 55.6822 17.1057 55.8733 17.2899 56.0601C17.4153 56.1866 17.54 56.312 17.6754 56.4279C17.8748 56.5987 18.055 56.7898 18.2391 56.9766C18.3646 57.1031 18.4892 57.2285 18.6246 57.3445C18.824 57.5152 19.0042 57.7063 19.1884 57.8931C19.3138 58.0197 19.4385 58.145 19.5739 58.261C19.7732 58.4317 19.9534 58.6228 20.1376 58.8096C20.263 58.9362 20.3877 59.0615 20.5231 59.1775C20.7225 59.3482 20.9027 59.5393 21.0869 59.7261C21.2123 59.8527 21.337 59.9781 21.4724 60.094C21.6717 60.2648 21.8519 60.4559 22.0361 60.6427C22.1847 60.7925 22.3346 60.9371 22.4949 61.0743C22.5808 61.15 22.6578 61.2323 22.7367 61.3153C23.3181 61.9081 24.0833 62.2571 24.9175 62.281C25.7912 62.2631 26.5258 61.8993 27.1351 61.2887C27.16 61.2639 27.1849 61.2391 27.2105 61.2136C27.2516 61.1723 27.2926 61.1309 27.3335 61.0893C27.3914 61.0323 27.4509 60.9797 27.5129 60.9273C27.6904 60.7731 27.8539 60.605 28.0189 60.4377C28.1989 60.2552 28.3787 60.0751 28.5737 59.9083C28.717 59.7806 28.8497 59.6415 28.9845 59.5048C29.1591 59.3277 29.3334 59.1542 29.5223 58.9924C29.6658 58.8644 29.7988 58.7252 29.9337 58.5883C30.1083 58.4112 30.2827 58.2377 30.4716 58.0759C30.6151 57.9479 30.748 57.8087 30.883 57.6718C31.0576 57.4947 31.2319 57.3212 31.4208 57.1594C31.5643 57.0314 31.6973 56.8922 31.8322 56.7553C32.0068 56.5782 32.1812 56.4047 32.3701 56.2429C32.5135 56.1148 32.6465 55.9756 32.7815 55.8388C32.9561 55.6617 33.1304 55.4881 33.3193 55.3264C33.4628 55.1983 33.5958 55.0591 33.7307 54.9222C33.9053 54.7451 34.0797 54.5716 34.2686 54.4098C34.412 54.2818 34.545 54.1426 34.68 54.0057C35.0079 53.6731 35.0079 53.6731 35.1536 53.5485C35.3271 53.3999 35.4853 53.2354 35.6456 53.0729C35.8256 52.8903 36.0054 52.7103 36.2004 52.5435C36.3437 52.4157 36.4764 52.2767 36.6112 52.14C36.7858 51.9629 36.9601 51.7894 37.149 51.6276C37.2925 51.4995 37.4255 51.3603 37.5604 51.2235C37.735 51.0464 37.9094 50.8728 38.0983 50.7111C38.2418 50.583 38.3747 50.4438 38.5097 50.3069C38.6843 50.1298 38.8586 49.9563 39.0475 49.7945C39.191 49.6665 39.324 49.5273 39.4589 49.3904C39.6335 49.2133 39.8079 49.0398 39.9968 48.878C40.1402 48.75 40.2732 48.6108 40.4082 48.4739C40.5828 48.2968 40.7571 48.1233 40.946 47.9615C41.0895 47.8335 41.2225 47.6943 41.3574 47.5574C41.532 47.3803 41.7064 47.2068 41.8953 47.045C42.0387 46.917 42.1717 46.7778 42.3067 46.6409C42.5025 46.4423 42.6987 46.2478 42.9122 46.0681C42.7984 45.8324 42.6731 45.6059 42.5399 45.3807C42.499 45.3111 42.4581 45.2414 42.4173 45.1718C42.3858 45.1182 42.3858 45.1182 42.3537 45.0636C42.2506 44.8874 42.1487 44.7106 42.0468 44.5337C42.0265 44.4984 42.0061 44.463 41.9851 44.4266C41.9438 44.3548 41.9024 44.283 41.8611 44.2113C41.8 44.1053 41.7388 43.9993 41.6776 43.8934C41.4118 43.4333 41.1474 42.9723 40.8841 42.5108C40.8062 42.3743 40.7282 42.2378 40.6501 42.1014C40.3944 41.6546 40.1399 41.2071 39.887 40.7587C39.7989 40.6026 39.7108 40.4467 39.6226 40.2908C39.5871 40.2279 39.5516 40.1651 39.5161 40.1023C39.4456 39.9777 39.3751 39.853 39.3046 39.7284C39.0631 39.3017 38.823 38.8742 38.5837 38.4462C38.5267 38.3443 38.4696 38.2425 38.4125 38.1406C38.1534 37.6785 37.8956 37.2156 37.6386 36.7523C37.5774 36.6422 37.5163 36.5322 37.4551 36.4222C37.1895 35.9447 36.9251 35.4667 36.6614 34.9882C36.584 34.8477 36.5064 34.7074 36.4287 34.567C36.179 34.1157 35.9321 33.6631 35.6882 33.2086C35.5868 33.0199 35.4844 32.8316 35.3817 32.6436C35.0196 31.9809 34.661 31.3162 34.3035 30.651C34.2746 30.5971 34.2746 30.5971 34.245 30.5421C33.7974 29.7091 33.3537 28.874 32.9173 28.0351C32.8357 27.8784 32.7534 27.7222 32.671 27.566C32.5192 27.2782 32.3694 26.9894 32.22 26.7003C32.1252 26.5171 32.0299 26.3341 31.9336 26.1517C31.7576 25.8183 31.5839 25.4837 31.4121 25.1481C31.3978 25.1203 31.3836 25.0925 31.3689 25.0638C30.9689 24.2826 30.5769 23.4973 30.1847 22.7122C30.1029 22.5484 30.0209 22.3846 29.939 22.2208C29.858 22.0591 29.7772 21.8973 29.6963 21.7356C29.6488 21.6405 29.6013 21.5455 29.5538 21.4505C29.221 20.7855 28.8996 20.1153 28.5835 19.4421C28.5612 19.3946 28.5389 19.3471 28.5166 19.2996C28.4823 19.2267 28.4481 19.1538 28.4139 19.0809C28.3494 18.9435 28.2846 18.8062 28.2197 18.669C27.9347 18.0669 27.6605 17.4605 27.3916 16.8511C27.3259 16.7021 27.2592 16.5536 27.1919 16.4054C26.7282 15.3848 26.2967 14.3478 25.8913 13.3027C25.882 13.2789 25.8728 13.2551 25.8632 13.2306C25.5889 12.5234 25.3338 11.8127 25.1068 11.0889C25.0984 11.0621 25.0899 11.0354 25.0812 11.0079C25.0655 10.9579 25.0499 10.9078 25.0345 10.8577C24.9935 10.726 24.9935 10.726 24.9093 10.6186ZM27.8225 61.9761C27.8062 61.9936 27.7898 62.0111 27.773 62.0291C27.0803 62.7479 26.121 63.2267 25.1141 63.2594C23.9606 63.2771 23.0054 62.8908 22.1597 62.1071C22.1122 62.2497 22.1784 62.3457 22.2354 62.4773C22.3241 62.6856 22.4012 62.8938 22.4643 63.1113C22.4774 63.1551 22.4905 63.1988 22.5036 63.2426C22.5293 63.3281 22.5529 63.4135 22.5756 63.5C22.6775 63.8378 22.8471 63.9728 23.1417 64.1365C23.1716 64.1542 23.2014 64.1719 23.2322 64.1901C23.3135 64.2373 23.3957 64.2815 23.4793 64.3247C23.5086 64.3399 23.5379 64.3551 23.5681 64.3708C24.3322 64.757 25.1413 64.8312 25.957 64.574C26.1981 64.4927 26.4195 64.3841 26.638 64.2551C26.6568 64.2441 26.6755 64.233 26.6949 64.2216C26.7557 64.1841 26.8142 64.144 26.8732 64.1038C26.8998 64.088 26.9263 64.0722 26.9537 64.0559C27.2474 63.8595 27.3075 63.598 27.401 63.2752C27.4335 63.1692 27.4667 63.0635 27.4999 62.9577C27.5078 62.932 27.5158 62.9063 27.5239 62.8798C27.5958 62.6492 27.6843 62.4282 27.785 62.2087C27.8099 62.1537 27.8328 62.0977 27.8552 62.0416C27.8444 62.02 27.8336 61.9984 27.8225 61.9761ZM23.0108 64.9875C23.0367 65.1328 23.0626 65.278 23.0885 65.4233C23.0958 65.464 23.103 65.5047 23.1105 65.5466C23.1249 65.6274 23.1397 65.7082 23.1547 65.789C23.1672 65.8621 23.1778 65.9356 23.1857 66.0094C23.2016 66.1766 23.2016 66.1766 23.2882 66.3138C23.3531 66.3536 23.4161 66.3809 23.4875 66.4073C23.512 66.4176 23.5366 66.4279 23.5618 66.4385C24.4212 66.787 25.3246 66.8471 26.1937 66.4907C26.3573 66.4203 26.5175 66.3438 26.6768 66.2641C26.6971 66.1854 26.7133 66.1091 26.7273 66.0292C26.7317 66.0056 26.736 65.982 26.7405 65.9577C26.7496 65.9076 26.7586 65.8575 26.7675 65.8073C26.7811 65.7307 26.7952 65.6543 26.8095 65.5778C26.8183 65.5292 26.8271 65.4805 26.8358 65.4319C26.84 65.409 26.8443 65.3862 26.8487 65.3626C26.868 65.2508 26.8809 65.1609 26.8405 65.053C26.8029 65.0704 26.7653 65.0878 26.7266 65.1057C25.7383 65.5574 24.7192 65.6685 23.6859 65.2862C23.4562 65.1971 23.2329 65.0939 23.0108 64.9875ZM26.3259 67.2782C25.4236 67.59 24.4323 67.639 23.5355 67.2701C23.4654 67.2405 23.4654 67.2405 23.3708 67.2461C23.3756 67.3538 23.3804 67.4616 23.3852 67.5693C23.3865 67.5987 23.3877 67.6281 23.3891 67.6584C23.3966 67.8263 23.4053 67.994 23.416 68.1618C23.4372 68.5081 23.4406 68.8532 23.4395 69.2001C23.4395 69.2528 23.4394 69.3055 23.4394 69.3582C23.4392 69.5502 23.4388 69.7422 23.4384 69.9342C23.4377 70.365 23.437 70.7957 23.4363 71.2395C24.4409 71.2395 25.4454 71.2395 26.4804 71.2395C26.4779 70.3788 26.4779 70.3788 26.4745 69.5182C26.473 68.91 26.4821 68.3074 26.5317 67.701C26.545 67.5377 26.5487 67.3771 26.5459 67.2133C26.4699 67.2133 26.3972 67.2533 26.3259 67.2782Z" fill="white"/>
<path d="M40.05 78.5589C40.1279 78.5594 40.2057 78.5589 40.2836 78.5582C40.6745 78.5576 41.0246 78.6059 41.3761 78.7885C41.4092 78.8055 41.4092 78.8055 41.4431 78.8229C41.6495 78.9325 41.8263 79.0653 41.996 79.2263C42.0214 79.2504 42.0468 79.2745 42.0731 79.2993C42.6078 79.8488 42.7757 80.5288 42.768 81.2769C42.7422 82.0805 42.4282 82.6825 41.8521 83.2285C41.2386 83.7606 40.4498 83.8305 39.6719 83.7761C39.0043 83.7001 38.4109 83.2735 38.0026 82.7614C37.5469 82.108 37.4544 81.2922 37.5832 80.5192C37.7464 79.8161 38.1606 79.2573 38.7652 78.8677C39.1724 78.6179 39.5823 78.5551 40.05 78.5589ZM38.8098 79.7909C38.4339 80.1812 38.3003 80.6368 38.2828 81.1719C38.2957 81.7305 38.4847 82.2067 38.8864 82.5978C39.2802 82.958 39.7284 83.0737 40.2541 83.0618C40.8163 83.031 41.2234 82.8064 41.6029 82.3964C41.8984 82.0457 42.0091 81.6118 42.0062 81.1616C42.006 81.1329 42.0059 81.1042 42.0058 81.0746C42.002 80.86 41.9746 80.6716 41.8978 80.4702C41.8886 80.4425 41.8795 80.4148 41.8701 80.3863C41.7273 79.9824 41.4076 79.6529 41.028 79.4585C40.2743 79.1192 39.4126 79.2112 38.8098 79.7909Z" fill="white"/>
<path d="M26.1204 78.6041C28.7973 78.6041 28.7973 78.6041 29.6018 79.3615C30.0921 79.8931 30.2703 80.5762 30.254 81.2856C30.2116 82.0123 29.9604 82.6136 29.4258 83.118C28.5024 83.8952 27.2487 83.7104 26.1204 83.7104C26.1204 82.0253 26.1204 80.3403 26.1204 78.6041ZM26.8732 79.3242C26.8732 80.534 26.8732 81.7438 26.8732 82.9903C28.082 83.0099 28.082 83.0099 29.0527 82.4222C29.3806 82.0631 29.513 81.5667 29.4999 81.0859C29.4557 80.5792 29.3204 80.1378 28.9354 79.7825C28.3215 79.2882 27.6436 79.3242 26.8732 79.3242Z" fill="white"/>
<path d="M14.6967 88.0969C14.8479 88.0969 14.9991 88.0969 15.155 88.0969C15.3369 88.473 15.4954 88.8564 15.6518 89.2437C15.7351 89.4499 15.82 89.6553 15.9058 89.8604C16.0236 90.1425 16.1409 90.4248 16.2576 90.7074C16.3986 91.0484 16.5401 91.3892 16.6821 91.7298C16.7136 91.8053 16.7451 91.8809 16.7765 91.9564C16.8704 92.1818 16.9645 92.4071 17.0592 92.6321C17.0746 92.6688 17.0901 92.7056 17.106 92.7434C17.1343 92.8108 17.1627 92.8781 17.1912 92.9454C17.2034 92.9745 17.2156 93.0036 17.2282 93.0337C17.2388 93.0587 17.2494 93.0838 17.2603 93.1096C17.2826 93.1705 17.2826 93.1705 17.2826 93.2359C17.0125 93.2359 16.7425 93.2359 16.4643 93.2359C16.3581 93.0024 16.2547 92.7701 16.1594 92.5322C16.1477 92.5034 16.1359 92.4746 16.1238 92.445C16.1127 92.4174 16.1017 92.3898 16.0903 92.3614C16.0803 92.3368 16.0704 92.3121 16.0602 92.2868C16.0387 92.2212 16.0387 92.2212 16.0387 92.123C15.315 92.123 14.5913 92.123 13.8456 92.123C13.8132 92.2203 13.7808 92.3175 13.7474 92.4176C13.7211 92.4872 13.6941 92.5564 13.6663 92.6254C13.6518 92.6614 13.6374 92.6973 13.6225 92.7344C13.6003 92.7893 13.6003 92.7893 13.5776 92.8452C13.5625 92.8829 13.5473 92.9206 13.5317 92.9594C13.4946 93.0516 13.4574 93.1438 13.4201 93.2359C13.1501 93.2359 12.88 93.2359 12.6018 93.2359C12.6313 93.0885 12.6754 92.9632 12.7336 92.8261C12.7436 92.8024 12.7536 92.7786 12.7638 92.7541C12.7963 92.6766 12.829 92.5993 12.8616 92.522C12.8842 92.4682 12.9068 92.4144 12.9294 92.3605C12.9742 92.2536 13.0191 92.1468 13.0641 92.04C13.1416 91.8558 13.2185 91.6713 13.2953 91.4868C13.3081 91.456 13.321 91.4253 13.3342 91.3936C13.6067 90.7392 13.8767 90.0839 14.1454 89.428C14.3275 88.9836 14.5111 88.5399 14.6967 88.0969ZM14.9258 89.4062C14.9156 89.4317 14.9055 89.4572 14.895 89.4834C14.8725 89.5395 14.8501 89.5956 14.8277 89.6516C14.7839 89.7611 14.7401 89.8705 14.6964 89.98C14.6101 90.196 14.5236 90.4119 14.4364 90.6276C14.4216 90.6643 14.4068 90.7009 14.3915 90.7387C14.3638 90.8076 14.3359 90.8764 14.3079 90.9452C14.2954 90.9764 14.2828 91.0075 14.2699 91.0397C14.259 91.0665 14.2482 91.0933 14.237 91.121C14.1993 91.224 14.1704 91.3301 14.1402 91.4357C14.6695 91.4357 15.1988 91.4357 15.7441 91.4357C15.6449 91.1329 15.6449 91.1329 15.532 90.8376C15.5177 90.8028 15.5033 90.768 15.4886 90.7322C15.4737 90.6963 15.4588 90.6604 15.4434 90.6235C15.2771 90.2195 15.1163 89.8136 14.9586 89.4062C14.9478 89.4062 14.937 89.4062 14.9258 89.4062Z" fill="white"/>
<path d="M27.1679 88.0969C27.3191 88.0969 27.4703 88.0969 27.6261 88.0969C27.7335 88.3068 27.8313 88.5164 27.9187 88.7352C27.9442 88.7984 27.9698 88.8615 27.9954 88.9247C28.0094 88.9594 28.0234 88.994 28.0379 89.0297C28.1282 89.2524 28.2199 89.4745 28.3115 89.6967C28.3214 89.7208 28.3313 89.7448 28.3415 89.7696C28.4768 90.0981 28.6127 90.4264 28.7496 90.7542C28.8686 91.0391 28.9866 91.3244 29.1044 91.6098C29.2013 91.8442 29.2988 92.0783 29.3969 92.3121C29.431 92.3935 29.4651 92.4749 29.4992 92.5563C29.5215 92.6096 29.5439 92.6629 29.5664 92.7162C29.5977 92.7907 29.629 92.8652 29.6602 92.9397C29.6697 92.9621 29.6792 92.9845 29.6889 93.0076C29.7538 93.163 29.7538 93.163 29.7538 93.2359C29.4837 93.2359 29.2137 93.2359 28.9354 93.2359C28.5099 92.2334 28.5099 92.2334 28.5099 92.123C27.7862 92.123 27.0625 92.123 26.3168 92.123C26.2844 92.2203 26.252 92.3175 26.2186 92.4176C26.1923 92.4872 26.1653 92.5564 26.1374 92.6254C26.123 92.6614 26.1085 92.6973 26.0937 92.7344C26.0715 92.7893 26.0715 92.7893 26.0488 92.8452C26.0337 92.8829 26.0185 92.9206 26.0029 92.9594C25.9658 93.0516 25.9285 93.1438 25.8913 93.2359C25.6213 93.2359 25.3512 93.2359 25.073 93.2359C25.1835 92.9045 25.1835 92.9045 25.2314 92.7884C25.2424 92.7618 25.2533 92.7351 25.2646 92.7077C25.2763 92.6795 25.288 92.6513 25.3001 92.6222C25.3127 92.5916 25.3253 92.561 25.3383 92.5294C25.3807 92.4267 25.4233 92.3239 25.4658 92.2212C25.4975 92.1444 25.5292 92.0676 25.5609 91.9908C25.7003 91.6533 25.8401 91.316 25.981 90.9791C26.1301 90.6224 26.2764 90.2646 26.4216 89.9062C26.6666 89.3016 26.9168 88.6991 27.1679 88.0969ZM27.397 89.4062C27.3872 89.4308 27.3773 89.4554 27.3672 89.4808C27.3372 89.5557 27.3072 89.6307 27.2772 89.7056C27.2423 89.7931 27.2073 89.8806 27.1723 89.9681C27.0881 90.1789 27.0037 90.3897 26.9187 90.6003C26.8823 90.6906 26.8459 90.781 26.8095 90.8713C26.792 90.9147 26.7745 90.9581 26.7569 91.0015C26.7324 91.0621 26.7079 91.1228 26.6835 91.1835C26.6626 91.2353 26.6626 91.2353 26.6413 91.2882C26.6077 91.3659 26.6077 91.3659 26.6114 91.4357C27.1407 91.4357 27.67 91.4357 28.2153 91.4357C28.1363 91.1688 28.1363 91.1688 28.0403 90.9118C28.0189 90.8598 28.0189 90.8598 27.997 90.8067C27.982 90.7706 27.9669 90.7344 27.9514 90.6971C27.9194 90.6195 27.8875 90.5418 27.8555 90.4642C27.8393 90.4248 27.8231 90.3854 27.8063 90.3448C27.7267 90.1504 27.6487 89.9553 27.5709 89.7602C27.5496 89.7068 27.5496 89.7068 27.5279 89.6524C27.4951 89.5703 27.4624 89.4883 27.4297 89.4062C27.4189 89.4062 27.4081 89.4062 27.397 89.4062Z" fill="white"/>
<path d="M10.6157 79.0605C10.6447 79.0828 10.6737 79.1051 10.7036 79.1281C10.6628 79.336 10.6194 79.5432 10.5727 79.75C10.5175 79.7745 10.5175 79.7745 10.4418 79.7827C10.3639 79.7254 10.3639 79.7254 10.2781 79.6518C9.89677 79.442 9.47184 79.2984 9.03426 79.2917C9.00747 79.2913 8.98067 79.2909 8.95307 79.2904C8.69629 79.301 8.43399 79.3972 8.2529 79.584C8.15674 79.724 8.12512 79.8406 8.15048 80.0118C8.21382 80.2187 8.36313 80.303 8.54327 80.4046C8.65297 80.4504 8.7646 80.4843 8.87878 80.5171C8.94238 80.5365 9.00597 80.5559 9.06955 80.5753C9.10168 80.585 9.13381 80.5946 9.16692 80.6046C10.4913 81.005 10.4913 81.005 10.7982 81.5447C10.9089 81.7609 10.9511 81.9716 10.9491 82.2131C10.9489 82.2401 10.9487 82.2671 10.9485 82.295C10.9369 82.6879 10.7862 83.0085 10.5072 83.2851C10.4032 83.3711 10.2955 83.4446 10.1799 83.5142C10.1595 83.5269 10.1391 83.5396 10.1181 83.5527C9.57643 83.8571 8.84671 83.8648 8.25787 83.7172C7.96142 83.632 7.69027 83.5181 7.43036 83.3506C7.3999 83.3324 7.36943 83.3142 7.33805 83.2954C7.1455 83.168 7.1455 83.168 7.1217 83.0542C7.12829 82.9738 7.14554 82.9042 7.1685 82.8268C7.17681 82.7942 7.18513 82.7616 7.19369 82.728C7.21652 82.6404 7.24091 82.5535 7.2667 82.4668C7.38977 82.4848 7.46566 82.516 7.56538 82.5895C8.10644 82.9621 8.7628 83.0876 9.40787 82.9855C9.69212 82.9183 9.91772 82.8053 10.0821 82.5595C10.1814 82.3754 10.1688 82.1818 10.1124 81.986C9.87165 81.5744 9.35174 81.4514 8.9197 81.3355C8.35997 81.1837 7.85138 81.0254 7.49583 80.5356C7.32449 80.2313 7.31548 79.8269 7.4039 79.494C7.55276 79.0927 7.84045 78.8595 8.2162 78.6772C9.00473 78.354 9.94509 78.5871 10.6157 79.0605Z" fill="white"/>
<path d="M38.3954 88.0969C38.6438 88.0969 38.8922 88.0969 39.1482 88.0969C39.1485 88.1914 39.1488 88.2858 39.1491 88.3831C39.1502 88.6969 39.1521 89.0107 39.1542 89.3245C39.1555 89.5146 39.1566 89.7046 39.1571 89.8947C39.1576 90.0785 39.1587 90.2623 39.1603 90.4461C39.1607 90.5158 39.161 90.5855 39.161 90.6553C39.1615 91.2298 39.1792 91.8497 39.6065 92.2867C39.9063 92.5194 40.2187 92.5417 40.5884 92.5158C40.8651 92.4735 41.0764 92.3409 41.2605 92.1315C41.501 91.7897 41.5417 91.3305 41.5444 90.9248C41.5447 90.8941 41.5451 90.8634 41.5454 90.8318C41.5464 90.731 41.5472 90.6303 41.548 90.5295C41.5487 90.4594 41.5494 90.3892 41.5501 90.3191C41.5519 90.135 41.5535 89.9509 41.5551 89.7669C41.5568 89.5788 41.5586 89.3908 41.5604 89.2027C41.5639 88.8341 41.5672 88.4655 41.5704 88.0969C41.8189 88.0969 42.0673 88.0969 42.3233 88.0969C42.3248 88.5024 42.326 88.9079 42.3267 89.3134C42.327 89.5017 42.3275 89.6901 42.3282 89.8784C42.3289 90.0605 42.3293 90.2426 42.3295 90.4247C42.3296 90.4938 42.3298 90.5629 42.3302 90.6321C42.3341 91.4214 42.29 92.1955 41.7172 92.801C41.2136 93.265 40.6609 93.2968 40.009 93.276C39.7993 93.2618 39.628 93.2058 39.4428 93.105C39.4109 93.0884 39.379 93.0718 39.3461 93.0546C38.9037 92.7996 38.6451 92.388 38.4893 91.9119C38.4168 91.6326 38.3905 91.3611 38.3916 91.0734C38.3916 91.0411 38.3916 91.0089 38.3916 90.9756C38.3916 90.8695 38.3919 90.7634 38.3922 90.6574C38.3922 90.5836 38.3923 90.5098 38.3923 90.436C38.3924 90.2422 38.3927 90.0484 38.3931 89.8547C38.3934 89.6567 38.3936 89.4588 38.3938 89.2609C38.3941 88.8729 38.3947 88.4849 38.3954 88.0969Z" fill="white"/>
<path d="M19.312 78.6041C19.5604 78.6041 19.8089 78.6041 20.0648 78.6041C20.0657 78.6954 20.0665 78.7868 20.0673 78.8809C20.0701 79.1836 20.073 79.4863 20.0759 79.789C20.0777 79.9724 20.0795 80.1558 20.0811 80.3393C20.0827 80.5165 20.0844 80.6937 20.0862 80.8709C20.0869 80.9383 20.0875 81.0057 20.088 81.0731C20.0705 81.963 20.0705 81.963 20.4832 82.7219C20.7504 82.9701 21.0174 83.0348 21.3785 83.0299C21.6481 83.0101 21.8933 82.9105 22.0943 82.7284C22.5075 82.2204 22.4594 81.5368 22.4647 80.9216C22.4653 80.8546 22.466 80.7876 22.4667 80.7206C22.4685 80.5454 22.4702 80.3701 22.4717 80.1948C22.4734 80.0156 22.4752 79.8363 22.477 79.657C22.4805 79.306 22.4838 78.9551 22.487 78.6041C22.7355 78.6041 22.9839 78.6041 23.2399 78.6041C23.2414 79.0091 23.2426 79.414 23.2433 79.8189C23.2436 80.007 23.2441 80.1951 23.2448 80.3831C23.2456 80.565 23.2459 80.7469 23.2461 80.9288C23.2462 80.9978 23.2465 81.0668 23.2468 81.1358C23.2507 81.914 23.2161 82.64 22.6671 83.244C22.6401 83.2683 22.6131 83.2926 22.5852 83.3176C22.5689 83.3333 22.5526 83.349 22.5358 83.3652C22.1893 83.685 21.7481 83.7952 21.2862 83.7922C21.252 83.7921 21.2178 83.7919 21.1827 83.7917C20.689 83.7804 20.3104 83.6361 19.9421 83.3013C19.9178 83.2743 19.8935 83.2472 19.8684 83.2194C19.8531 83.2039 19.8378 83.1883 19.822 83.1722C19.4047 82.7271 19.3059 82.1003 19.3083 81.5137C19.3083 81.4821 19.3083 81.4504 19.3083 81.4178C19.3083 81.3142 19.3085 81.2106 19.3088 81.107C19.3088 81.0348 19.3089 80.9626 19.3089 80.8903C19.3091 80.701 19.3094 80.5116 19.3097 80.3222C19.3101 80.1287 19.3102 79.9352 19.3104 79.7416C19.3107 79.3625 19.3113 78.9833 19.312 78.6041Z" fill="white"/>
<path d="M31.7178 88.0969C31.9878 88.0969 32.2579 88.0969 32.5361 88.0969C32.5928 88.2063 32.6495 88.3157 32.7079 88.4283C32.9678 88.9275 33.2366 89.4216 33.5148 89.9108C33.6176 90.0928 33.7109 90.2789 33.8024 90.4668C33.8376 90.5475 33.8376 90.5475 33.8781 90.5846C33.8929 90.5566 33.9077 90.5287 33.923 90.4999C34.2054 89.9666 34.4888 89.434 34.7792 88.9049C34.8692 88.7408 34.9587 88.5764 35.0483 88.412C35.105 88.308 35.1617 88.204 35.2202 88.0969C35.4902 88.0969 35.7603 88.0969 36.0385 88.0969C35.9947 88.2282 35.9646 88.3183 35.898 88.4318C35.8755 88.4705 35.8755 88.4705 35.8526 88.51C35.8363 88.5378 35.82 88.5655 35.8032 88.5941C35.7675 88.6556 35.7319 88.7172 35.6963 88.7788C35.6774 88.8115 35.6586 88.8442 35.6391 88.8779C35.5365 89.0571 35.4367 89.2378 35.3368 89.4185C35.1823 89.6973 35.0272 89.9757 34.8703 90.2532C34.8552 90.2799 34.8401 90.3066 34.8246 90.3342C34.8092 90.3614 34.7938 90.3886 34.7779 90.4166C34.7614 90.4468 34.7449 90.4771 34.7279 90.5082C34.6767 90.5953 34.6232 90.6754 34.5648 90.7576C34.2368 91.2409 34.2159 91.6738 34.2288 92.2472C34.2309 92.3591 34.2306 92.4711 34.2306 92.583C34.2311 92.8007 34.2337 93.0183 34.2382 93.2359C34.1188 93.2369 33.9995 93.2375 33.8802 93.238C33.8461 93.2383 33.812 93.2385 33.7769 93.2388C33.7445 93.2389 33.7122 93.239 33.6788 93.2391C33.6488 93.2393 33.6188 93.2395 33.5879 93.2397C33.5181 93.2359 33.5181 93.2359 33.4853 93.2032C33.4847 93.1492 33.4863 93.0952 33.4889 93.0412C33.4911 92.9891 33.4911 92.9891 33.4933 92.9359C33.4949 92.8979 33.4966 92.8599 33.4982 92.8207C33.5729 91.6437 33.5729 91.6437 33.0951 90.6113C32.9767 90.4509 32.8876 90.2744 32.7943 90.0985C32.7401 89.997 32.6843 89.8963 32.6285 89.7956C32.6179 89.7762 32.6072 89.7569 32.5962 89.737C32.498 89.5596 32.3977 89.3835 32.2967 89.2078C32.1656 88.9795 32.0358 88.7506 31.908 88.5204C31.8926 88.4929 31.8772 88.4654 31.8614 88.4371C31.8473 88.4115 31.8332 88.386 31.8187 88.3597C31.8062 88.3373 31.7938 88.3149 31.781 88.2919C31.7505 88.2279 31.7505 88.2279 31.7178 88.0969Z" fill="white"/>
<path d="M32.7325 78.6041C33.4994 78.6041 34.2663 78.6041 35.0565 78.6041C35.0565 78.8202 35.0565 79.0362 35.0565 79.2588C35.0403 79.275 35.0403 79.275 35.0237 79.2915C34.7753 79.2915 34.5269 79.2915 34.2709 79.2915C34.2709 80.5229 34.2709 81.7543 34.2709 83.023C34.5517 83.023 34.8326 83.023 35.1219 83.023C35.1219 83.2499 35.1219 83.4767 35.1219 83.7104C34.3118 83.7104 33.5017 83.7104 32.667 83.7104C32.667 83.4836 32.667 83.2567 32.667 83.023C32.9478 83.023 33.2287 83.023 33.518 83.023C33.518 81.7916 33.518 80.5602 33.518 79.2915C33.2588 79.2915 32.9996 79.2915 32.7325 79.2915C32.7325 79.0647 32.7325 78.8378 32.7325 78.6041Z" fill="white"/>
<path d="M19.4102 88.0969C20.5767 88.0969 21.7433 88.0969 22.9453 88.0969C22.9453 88.3238 22.9453 88.5506 22.9453 88.7843C22.4808 88.7843 22.0163 88.7843 21.5378 88.7843C21.5378 90.2533 21.5378 91.7224 21.5378 93.2359C21.2893 93.2359 21.0409 93.2359 20.7849 93.2359C20.7849 91.7669 20.7849 90.2979 20.7849 88.7843C20.3313 88.7843 19.8776 88.7843 19.4102 88.7843C19.4102 88.5575 19.4102 88.3306 19.4102 88.0969Z" fill="white"/>
<path d="M13.2565 78.6041C14.4231 78.6041 15.5897 78.6041 16.7916 78.6041C16.7916 78.831 16.7916 79.0578 16.7916 79.2915C16.3271 79.2915 15.8626 79.2915 15.3841 79.2915C15.3841 80.7497 15.3841 82.208 15.3841 83.7104C15.1356 83.7104 14.8872 83.7104 14.6312 83.7104C14.6312 82.2522 14.6312 80.7939 14.6312 79.2915C14.1776 79.2915 13.7239 79.2915 13.2565 79.2915C13.2565 79.0647 13.2565 78.8378 13.2565 78.6041Z" fill="white"/>
<path d="M9.49238 88.0969C9.74082 88.0969 9.98926 88.0969 10.2452 88.0969C10.2467 88.534 10.2479 88.9711 10.2486 89.4081C10.249 89.6111 10.2494 89.8141 10.2502 90.0171C10.2509 90.2132 10.2513 90.4093 10.2514 90.6054C10.2516 90.68 10.2518 90.7546 10.2521 90.8291C10.2554 91.5407 10.2208 92.2362 9.71332 92.793C9.27662 93.2129 8.80311 93.2914 8.22054 93.2808C7.8169 93.2637 7.51899 93.0956 7.23383 92.8104C7.23142 92.5719 7.29934 92.3703 7.39749 92.1558C7.49664 92.2031 7.58734 92.2582 7.67981 92.3174C8.01 92.5143 8.34645 92.568 8.72802 92.5005C8.94797 92.4374 9.09249 92.3083 9.23665 92.1353C9.43605 91.764 9.46367 91.3862 9.46637 90.9731C9.46669 90.9418 9.46701 90.9104 9.46735 90.8781C9.46837 90.7758 9.46919 90.6734 9.47 90.571C9.47068 90.4996 9.47136 90.4281 9.47206 90.3567C9.47386 90.1695 9.47548 89.9824 9.47707 89.7952C9.47872 89.6039 9.48054 89.4126 9.48234 89.2212C9.48585 88.8465 9.48916 88.4717 9.49238 88.0969Z" fill="white"/>
</g>
</g>
<defs>
<clipPath id="clip0_182_1420">
<rect width="50" height="100" fill="white"/>
</clipPath>
<clipPath id="clip1_182_1420">
<rect width="50.1464" height="89" fill="white" transform="translate(0 8)"/>
</clipPath>
</defs>
</svg>
