<svg width="32" height="32" viewBox="0 0 32 32" fill="none" xmlns="http://www.w3.org/2000/svg">
<g clip-path="url(#clip0_212_11077)">
<path d="M23.5199 28.9999H8.51991C7.6854 28.9998 6.86195 28.809 6.11237 28.4422C5.36279 28.0754 4.70689 27.5423 4.19468 26.8835C3.68248 26.2246 3.32751 25.4575 3.15684 24.6407C2.98617 23.8238 3.00432 22.9787 3.2099 22.1699L6.2499 9.75995C6.30466 9.53807 6.43375 9.34164 6.6157 9.20336C6.79765 9.06508 7.02147 8.99329 7.2499 8.99995H23.9999C24.2205 8.98985 24.4382 9.05304 24.6191 9.17967C24.8 9.3063 24.9339 9.48924 24.9999 9.69995L28.7799 21.8599C29.0383 22.6859 29.0979 23.5612 28.9536 24.4145C28.8094 25.2678 28.4654 26.0749 27.9499 26.7699C27.4428 27.468 26.7761 28.0346 26.0055 28.4225C25.2349 28.8104 24.3826 29.0084 23.5199 28.9999ZM7.9999 10.9999L5.1099 22.6499C4.98121 23.1639 4.9709 23.7005 5.07974 24.219C5.18859 24.7376 5.41376 25.2247 5.73826 25.6435C6.06277 26.0624 6.47814 26.4021 6.95306 26.6371C7.42798 26.8721 7.95005 26.9961 8.4799 26.9999H23.4799C24.0241 27.0008 24.5608 26.8726 25.0458 26.6257C25.5308 26.3789 25.9503 26.0205 26.2699 25.5799C26.5987 25.1369 26.8181 24.6224 26.9102 24.0785C27.0023 23.5345 26.9645 22.9765 26.7999 22.4499L23.2799 10.9999H7.9999Z" fill="white"/>
<path d="M20 17C19.7348 17 19.4804 16.8946 19.2929 16.7071C19.1054 16.5196 19 16.2652 19 16V8C19 7.20435 18.6839 6.44129 18.1213 5.87868C17.5587 5.31607 16.7956 5 16 5C15.2044 5 14.4413 5.31607 13.8787 5.87868C13.3161 6.44129 13 7.20435 13 8V16C13 16.2652 12.8946 16.5196 12.7071 16.7071C12.5196 16.8946 12.2652 17 12 17C11.7348 17 11.4804 16.8946 11.2929 16.7071C11.1054 16.5196 11 16.2652 11 16V8C11 6.67392 11.5268 5.40215 12.4645 4.46447C13.4021 3.52678 14.6739 3 16 3C17.3261 3 18.5979 3.52678 19.5355 4.46447C20.4732 5.40215 21 6.67392 21 8V16C21 16.2652 20.8946 16.5196 20.7071 16.7071C20.5196 16.8946 20.2652 17 20 17Z" fill="white"/>
</g>
<defs>
<clipPath id="clip0_212_11077">
<rect width="32" height="32" fill="white"/>
</clipPath>
</defs>
</svg>
