<svg width="31" height="30" viewBox="0 0 31 30" fill="none" xmlns="http://www.w3.org/2000/svg">
<path d="M15.947 7.19775C11.7131 7.19775 8.20508 10.6453 8.20508 14.9397C8.20508 19.234 11.6527 22.6816 15.947 22.6816C20.2414 22.6816 23.6889 19.1736 23.6889 14.9397C23.6889 10.7058 20.1809 7.19775 15.947 7.19775ZM15.947 19.8994C13.2252 19.8994 10.9873 17.6615 10.9873 14.9397C10.9873 12.2179 13.2252 9.98001 15.947 9.98001C18.6688 9.98001 20.9067 12.2179 20.9067 14.9397C20.9067 17.6615 18.6688 19.8994 15.947 19.8994Z" fill="white"/>
<path d="M23.9913 8.76978C24.9601 8.76978 25.7454 7.98448 25.7454 7.01575C25.7454 6.04703 24.9601 5.26172 23.9913 5.26172C23.0226 5.26172 22.2373 6.04703 22.2373 7.01575C22.2373 7.98448 23.0226 8.76978 23.9913 8.76978Z" fill="white"/>
<path d="M28.5279 2.47984C26.9553 0.846774 24.7174 0 22.1771 0H9.71743C4.45533 0 0.947266 3.50806 0.947266 8.77016V21.1694C0.947266 23.7702 1.79404 26.0081 3.48759 27.6411C5.12065 29.2137 7.29807 30 9.77791 30H22.1166C24.7174 30 26.8948 29.1532 28.4674 27.6411C30.1005 26.0685 30.9473 23.8306 30.9473 21.2298V8.77016C30.9473 6.22984 30.1005 4.05242 28.5279 2.47984ZM28.286 21.2298C28.286 23.1048 27.6207 24.6169 26.5319 25.6452C25.4432 26.6734 23.9311 27.2177 22.1166 27.2177H9.77791C7.96339 27.2177 6.4513 26.6734 5.36259 25.6452C4.27388 24.5565 3.72952 23.0444 3.72952 21.1694V8.77016C3.72952 6.95564 4.27388 5.44355 5.36259 4.35484C6.39081 3.32661 7.96339 2.78226 9.77791 2.78226H22.2376C24.0521 2.78226 25.5642 3.32661 26.6529 4.41532C27.6811 5.50403 28.286 7.01613 28.286 8.77016V21.2298Z" fill="white"/>
</svg>
