<svg width="31" height="30" viewBox="0 0 31 30" fill="none" xmlns="http://www.w3.org/2000/svg">
<path d="M7.0355 29.9999H0.606934V8.57129H7.0355V29.9999ZM30.6069 29.9999H24.1784V18.5527C24.1784 15.5699 23.1155 14.0849 21.0091 14.0849C19.3398 14.0849 18.2812 14.9163 17.7498 16.5813C17.7498 19.2856 17.7498 29.9999 17.7498 29.9999H11.3212C11.3212 29.9999 11.4069 10.7141 11.3212 8.57129H16.3955L16.7876 12.857H16.9205C18.2384 10.7141 20.3448 9.26129 23.2334 9.26129C25.4298 9.26129 27.2062 9.872 28.5626 11.4063C29.9276 12.9427 30.6069 15.0041 30.6069 17.8991V29.9999Z" fill="white"/>
<path d="M3.82143 6.42857C5.6558 6.42857 7.14286 4.98949 7.14286 3.21429C7.14286 1.43908 5.6558 0 3.82143 0C1.98705 0 0.5 1.43908 0.5 3.21429C0.5 4.98949 1.98705 6.42857 3.82143 6.42857Z" fill="white"/>
</svg>
