<svg width="24" height="25" viewBox="0 0 24 25" fill="none" xmlns="http://www.w3.org/2000/svg">
<g clip-path="url(#clip0_225_11255)">
<path d="M18 8.76904H20C20.2652 8.76904 20.5196 8.8744 20.7071 9.06194C20.8946 9.24947 21 9.50383 21 9.76904V21.769C21 22.0343 20.8946 22.2886 20.7071 22.4762C20.5196 22.6637 20.2652 22.769 20 22.769H4C3.73478 22.769 3.48043 22.6637 3.29289 22.4762C3.10536 22.2886 3 22.0343 3 21.769V9.76904C3 9.50383 3.10536 9.24947 3.29289 9.06194C3.48043 8.8744 3.73478 8.76904 4 8.76904H6V7.76904C6 6.17774 6.63214 4.65162 7.75736 3.5264C8.88258 2.40118 10.4087 1.76904 12 1.76904C13.5913 1.76904 15.1174 2.40118 16.2426 3.5264C17.3679 4.65162 18 6.17774 18 7.76904V8.76904ZM11 16.501V18.769H13V16.501C13.3813 16.2809 13.6793 15.9411 13.8478 15.5344C14.0162 15.1276 14.0458 14.6766 13.9319 14.2514C13.8179 13.8261 13.5668 13.4503 13.2175 13.1823C12.8682 12.9143 12.4403 12.769 12 12.769C11.5597 12.769 11.1318 12.9143 10.7825 13.1823C10.4332 13.4503 10.1821 13.8261 10.0681 14.2514C9.9542 14.6766 9.98376 15.1276 10.1522 15.5344C10.3207 15.9411 10.6187 16.2809 11 16.501ZM16 8.76904V7.76904C16 6.70818 15.5786 5.69076 14.8284 4.94062C14.0783 4.19047 13.0609 3.76904 12 3.76904C10.9391 3.76904 9.92172 4.19047 9.17157 4.94062C8.42143 5.69076 8 6.70818 8 7.76904V8.76904H16Z" fill="white"/>
</g>
<defs>
<clipPath id="clip0_225_11255">
<rect width="24" height="24" fill="white" transform="translate(0 0.769043)"/>
</clipPath>
</defs>
</svg>
