<svg width="24" height="15" viewBox="0 0 24 15" fill="none" xmlns="http://www.w3.org/2000/svg">
<path d="M1.09641 1.19421C1.73102 1.52881 10.5462 6.33449 10.8751 6.50756C11.2039 6.68063 11.5385 6.7614 12.0577 6.7614C12.5769 6.7614 12.9116 6.68063 13.2404 6.50756C13.5692 6.33449 22.3844 1.52881 23.019 1.19421C23.2556 1.07305 23.6536 0.853829 23.7402 0.605757C23.8902 0.167304 23.7286 0 23.0883 0H12.0577H1.02718C0.386813 0 0.225277 0.173073 0.375274 0.605757C0.461811 0.859598 0.85988 1.07305 1.09641 1.19421Z" fill="white"/>
<path d="M23.5207 1.45358C23.0476 1.69588 18.8015 4.71889 15.992 6.53617L20.7342 11.8726C20.8496 11.988 20.9015 12.1264 20.838 12.1957C20.7688 12.2591 20.6188 12.2245 20.4977 12.1149L14.8093 7.315C13.9497 7.86883 13.344 8.24959 13.2401 8.30728C12.7959 8.53228 12.4844 8.56112 12.0574 8.56112C11.6305 8.56112 11.319 8.53228 10.8748 8.30728C10.7652 8.24959 10.1652 7.86883 9.30558 7.315L3.61723 12.1149C3.50185 12.2303 3.34609 12.2649 3.27686 12.1957C3.20763 12.1322 3.25955 11.988 3.37493 11.8726L8.11137 6.53617C5.30181 4.71889 1.00959 1.69588 0.536527 1.45358C0.0288455 1.19397 0 1.49973 0 1.73626C0 1.9728 0 13.5629 0 13.5629C0 14.0995 0.790369 14.7687 1.35574 14.7687H12.0574H22.7592C23.3245 14.7687 23.9995 14.0937 23.9995 13.5629C23.9995 13.5629 23.9995 1.96703 23.9995 1.73626C23.9995 1.49396 24.0341 1.19397 23.5207 1.45358Z" fill="white"/>
</svg>
