<svg width="44" height="32" viewBox="0 0 44 32" fill="none" xmlns="http://www.w3.org/2000/svg">
<path d="M43.0485 5.65039C42.5541 3.80021 41.0971 2.34333 39.2469 1.84883C35.8932 0.950195 22.4468 0.950195 22.4468 0.950195C22.4468 0.950195 9.00031 0.950195 5.64664 1.84883C3.79679 2.34333 2.33958 3.80021 1.84516 5.65039C0.946777 9.00372 0.946777 16.0005 0.946777 16.0005C0.946777 16.0005 0.946777 22.9971 1.84516 26.3501C2.33958 28.2002 3.79679 29.6575 5.64664 30.152C9.00031 31.0502 22.4468 31.0503 22.4468 31.0503C22.4468 31.0503 35.8932 31.0502 39.2469 30.152C41.0971 29.6575 42.5541 28.2002 43.0485 26.3501C43.9468 22.9971 43.9468 16.0005 43.9468 16.0005C43.9468 16.0005 43.9468 9.00372 43.0485 5.65039ZM18.1466 22.4506V9.5503L29.3181 16.0005L18.1466 22.4506Z" fill="white"/>
</svg>
